<svg viewBox="0 0 495 404.319140625" width="495pt" height="404.319140625pt" xmlns="http://www.w3.org/2000/svg" xmlns:xlink="http://www.w3.org/1999/xlink" xmlns:h5="http://www.w3.org/1999/xhtml"><path fill="#ffffff" fill-rule="nonzero" d="M 0 0m 0 11.5c 0 -6.351274623 5.148725377 -11.5 11.5 -11.5h 472c 6.351274623 0 11.5 5.148725377 11.5 11.5v 381.319140625c 0 6.351274623 -5.148725377 11.5 -11.5 11.5h -472c -6.351274623 0 -11.5 -5.148725377 -11.5 -11.5Z "/><path fill="none" stroke="#d1d9e0" stroke-width="1" stroke-linecap="butt" stroke-linejoin="miter" stroke-miterlimit="4" d="M 0 0m 11.5 0h 472c 6.351274623 0 11.5 5.148725377 11.5 11.5v 381.319140625c 0 6.351274623 -5.148725377 11.5 -11.5 11.5h -472c -6.351274623 0 -11.5 -5.148725377 -11.5 -11.5v -381.319140625c 0 -6.351274623 5.148725377 -11.5 11.5 -11.5"/><g clip-path="url(#c2C50E63DF6974E21519A0179AC99794)"><g><g transform="matrix(1 0 0 -1 194.39453125 38.55078125)"><use xlink:href="#gBCC03FFC9CE10D6770D03EE7B6E4377B" x="0" y="0" fill="#1f2328" fill-rule="nonzero"/><use xlink:href="#gB7D98D20B91915F451356C0BD66DB867" x="14.912109375" y="0" fill="#1f2328" fill-rule="nonzero"/><use xlink:href="#gDBD0E2DE7B65F00F4046CC932B59E340" x="26.337890625" y="0" fill="#1f2328" fill-rule="nonzero"/><use xlink:href="#gAE406758405A3EACEAD6ED162A120820" x="38.720703125" y="0" fill="#1f2328" fill-rule="nonzero"/><use xlink:href="#g59CB9EA3C3234A7AADE3299E0905C3CF" x="46.73828125" y="0" fill="#1f2328" fill-rule="nonzero"/><use xlink:href="#g88F105EC22933C747E626D8EDAB8C85B" x="51.9921875" y="0" fill="#1f2328" fill-rule="nonzero"/><use xlink:href="#gBABC274F262CE4A0F7E06BE65E6ED668" x="63.681640625" y="0" fill="#1f2328" fill-rule="nonzero"/><use xlink:href="#g940BBE1695EFF246394C84D536A1962" x="73.525390625" y="0" fill="#1f2328" fill-rule="nonzero"/><use xlink:href="#g949F248C2C26B18F8665DF35CE01C980" x="94.00390625" y="0" fill="#1f2328" fill-rule="nonzero"/></g><g transform="matrix(1 0 0 -1 183.996582031 81.826171875)"><use xlink:href="#g4B868E75FB7AC1BD73CD3731FBF27BDF" x="0" y="0" fill="#656d76" fill-rule="nonzero"/><use xlink:href="#g12C92347EDC70869C1BFC167940FD336" x="11.58984375" y="0" fill="#656d76" fill-rule="nonzero"/><use xlink:href="#g481E5CF7F3EAE9749D106F3983144DD7" x="14.49609375" y="0" fill="#656d76" fill-rule="nonzero"/><use xlink:href="#g40324ACAB3562217234C7929DEA2AE3" x="21.591796875" y="0" fill="#656d76" fill-rule="nonzero"/><use xlink:href="#g3033191BE1F5096F1DD4CEAF257860A6" x="28.447265625" y="0" fill="#656d76" fill-rule="nonzero"/><use xlink:href="#g5A8F113ADE89425135674F22F6C86B66" x="31.353515625" y="0" fill="#656d76" fill-rule="nonzero"/><use xlink:href="#g54B702FFDF96D09AEB5BBD90930108D" x="35.443359375" y="0" fill="#656d76" fill-rule="nonzero"/><use xlink:href="#gB0280C786B7DF0BD2C5A866BB816DCBC" x="42.439453125" y="0" fill="#656d76" fill-rule="nonzero"/><use xlink:href="#g262E9DB68000F6991385A19C172547A" x="46.95703125" y="0" fill="#656d76" fill-rule="nonzero"/><use xlink:href="#gBDD08EDEE3020EEF95CCCC0F2D9A1877" x="51.837890625" y="0" fill="#656d76" fill-rule="nonzero"/><use xlink:href="#gBDD08EDEE3020EEF95CCCC0F2D9A1877" x="59.408203125" y="0" fill="#656d76" fill-rule="nonzero"/><use xlink:href="#g3AA11AF466730BA8DB43E7F6C87053E5" x="66.978515625" y="0" fill="#656d76" fill-rule="nonzero"/></g><g transform="translate(266.727050781 68.55078125)"><path fill="#f6f8fa" fill-rule="nonzero" d="M 0 0m 0 6.637695313c 0 -3.665897895 2.971797417 -6.637695313 6.637695313 -6.637695313h 31.000976563c 3.665897895 0 6.637695313 2.971797417 6.637695313 6.637695313c 0 3.665897895 -2.971797417 6.637695313 -6.637695313 6.637695313h -31.000976563c -3.665897895 0 -6.637695313 -2.971797417 -6.637695313 -6.637695313Z "/><g transform="matrix(1 0 0 -1 8 10.275390625)"><use xlink:href="#g71E62852FC9A893D7896930359AE4E70" x="0" y="0" fill="#656d76" fill-rule="nonzero"/><use xlink:href="#g1D31C05F51975D0A1D4AF3DDA1E23D2E" x="4.150390625" y="0" fill="#656d76" fill-rule="nonzero"/><use xlink:href="#g79056AE9319831F8A2196DC336B44F4C" x="13.271484375" y="0" fill="#656d76" fill-rule="nonzero"/><use xlink:href="#g51F4DFF5A83CF308979ADE701C7A18DE" x="19.0234375" y="0" fill="#656d76" fill-rule="nonzero"/><use xlink:href="#gAEE52FD45F3083B06DF88BF347456767" x="22.890625" y="0" fill="#656d76" fill-rule="nonzero"/></g></g></g><path fill="none" stroke="#d1d9e0" stroke-width="0.5" stroke-linecap="butt" stroke-linejoin="miter" stroke-miterlimit="4" transform="translate(0 115.026171875)" d="M 0 0h 495"/><g transform="translate(0 128.226171875)"><path fill="#f6f8fa" fill-rule="nonzero" d="M 0 0v 104.808789063h 495v -104.808789063Z "/><g transform="translate(16 8)"><g transform="matrix(1 0 0 -1 34.794921875 33.4609375)"><use xlink:href="#g48198AFDDBEA2EEFCAF040924BAC79AA" x="0" y="0" fill="#1f2328" fill-rule="nonzero"/><use xlink:href="#gC85B530165152BBB096C7308DD08E738" x="15.15234375" y="0" fill="#1f2328" fill-rule="nonzero"/><use xlink:href="#g48198AFDDBEA2EEFCAF040924BAC79AA" x="31.0078125" y="0" fill="#1f2328" fill-rule="nonzero"/></g><g transform="matrix(1 0 0 -1 43.001708984 72.808789063)"><use xlink:href="#gA210CA6C3559D6BAB7B41D7B05A51059" x="0" y="0" fill="#656d76" fill-rule="nonzero"/><use xlink:href="#g97EB66ECCBDB142D29368FB4BEB208E6" x="5.831542969" y="0" fill="#656d76" fill-rule="nonzero"/><use xlink:href="#g4C415DD6C933D4549619F54394333539" x="11.258789063" y="0" fill="#656d76" fill-rule="nonzero"/><use xlink:href="#gBF1FAABFE8460F6C5F4B00F10355BBB2" x="17.033203125" y="0" fill="#656d76" fill-rule="nonzero"/><use xlink:href="#g678D60297735D9242222C9D0F5A52DF0" x="23.932617188" y="0" fill="#656d76" fill-rule="nonzero"/></g></g><g transform="translate(131.75 8)"><g transform="matrix(1 0 0 -1 35.017578125 33.4609375)"><use xlink:href="#gA917404BE2108CEC6AD7641344721C4C" x="0" y="0" fill="#1f2328" fill-rule="nonzero"/><use xlink:href="#gD1F23D7759F4745DEB463530ADB022F8" x="15.1640625" y="0" fill="#1f2328" fill-rule="nonzero"/><use xlink:href="#gC85B530165152BBB096C7308DD08E738" x="29.859375" y="0" fill="#1f2328" fill-rule="nonzero"/></g><g transform="matrix(1 0 0 -1 43.432373047 72.808789063)"><use xlink:href="#g678D60297735D9242222C9D0F5A52DF0" x="0" y="0" fill="#656d76" fill-rule="nonzero"/><use xlink:href="#gFBB6AF8DE46B8DE1F8ADA3D8ACFA5072" x="5.761230469" y="0" fill="#656d76" fill-rule="nonzero"/><use xlink:href="#gE441A9687A83DF4E6D7FBA3714FBF132" x="10.858886719" y="0" fill="#656d76" fill-rule="nonzero"/><use xlink:href="#gA210CA6C3559D6BAB7B41D7B05A51059" x="17.239746094" y="0" fill="#656d76" fill-rule="nonzero"/><use xlink:href="#g678D60297735D9242222C9D0F5A52DF0" x="23.071289063" y="0" fill="#656d76" fill-rule="nonzero"/></g></g><g transform="translate(247.5 8)"><g transform="matrix(1 0 0 -1 43.3671875 33.4609375)"><use xlink:href="#g5012C893843C03745039C1578F55236A" x="0" y="0" fill="#1f2328" fill-rule="nonzero"/><use xlink:href="#gC85B530165152BBB096C7308DD08E738" x="13.16015625" y="0" fill="#1f2328" fill-rule="nonzero"/></g><g transform="matrix(1 0 0 -1 42.900634766 72.808789063)"><use xlink:href="#g6F5A15E66DED5242565015683579C215" x="0" y="0" fill="#656d76" fill-rule="nonzero"/><use xlink:href="#gBF1FAABFE8460F6C5F4B00F10355BBB2" x="5.304199219" y="0" fill="#656d76" fill-rule="nonzero"/><use xlink:href="#gA210CA6C3559D6BAB7B41D7B05A51059" x="12.203613281" y="0" fill="#656d76" fill-rule="nonzero"/><use xlink:href="#g3F70F37EE5F49232FF47C53DE4BB54F7" x="18.03515625" y="0" fill="#656d76" fill-rule="nonzero"/><use xlink:href="#g678D60297735D9242222C9D0F5A52DF0" x="24.134765625" y="0" fill="#656d76" fill-rule="nonzero"/></g></g><g transform="translate(363.25 8)"><g transform="matrix(1 0 0 -1 38.626953125 33.4609375)"><use xlink:href="#g9F35F92680C5F10C6D27E95216EE2DD8" x="0" y="0" fill="#1f2328" fill-rule="nonzero"/><use xlink:href="#gEDEA6F9DA24566D0D1FDE8D4832A335B" x="15.1640625" y="0" fill="#1f2328" fill-rule="nonzero"/><use xlink:href="#g5012C893843C03745039C1578F55236A" x="24.9609375" y="0" fill="#1f2328" fill-rule="nonzero"/></g><g transform="matrix(1 0 0 -1 30.349853516 72.808789063)"><use xlink:href="#g6F5A15E66DED5242565015683579C215" x="0" y="0" fill="#656d76" fill-rule="nonzero"/><use xlink:href="#gBF1FAABFE8460F6C5F4B00F10355BBB2" x="5.304199219" y="0" fill="#656d76" fill-rule="nonzero"/><use xlink:href="#gCA7C5F303ADCF81420ADCA8F8122A901" x="12.203613281" y="0" fill="#656d76" fill-rule="nonzero"/><use xlink:href="#gCA7C5F303ADCF81420ADCA8F8122A901" x="17.292480469" y="0" fill="#656d76" fill-rule="nonzero"/><use xlink:href="#gBF1FAABFE8460F6C5F4B00F10355BBB2" x="22.126464844" y="0" fill="#656d76" fill-rule="nonzero"/><use xlink:href="#g5C77C70BF4F746590E4B3CAF86B2A16A" x="28.951171875" y="0" fill="#656d76" fill-rule="nonzero"/><use xlink:href="#g97EB66ECCBDB142D29368FB4BEB208E6" x="37.977539063" y="0" fill="#656d76" fill-rule="nonzero"/><use xlink:href="#gA210CA6C3559D6BAB7B41D7B05A51059" x="43.404785156" y="0" fill="#656d76" fill-rule="nonzero"/><use xlink:href="#g678D60297735D9242222C9D0F5A52DF0" x="49.236328125" y="0" fill="#656d76" fill-rule="nonzero"/></g></g></g><path fill="none" stroke="#d1d9e0" stroke-width="0.5" stroke-linecap="butt" stroke-linejoin="miter" stroke-miterlimit="4" transform="translate(0 246.234960938)" d="M 0 0h 495"/><g transform="translate(0 259.434960938)"><g transform="matrix(1 0 0 -1 24 27.275390625)"><use xlink:href="#gF6E57F487FF2FD8A750A65697049246F" x="0" y="0" fill="#656d76" fill-rule="nonzero"/><use xlink:href="#gD0A07B6DDF9AC5A5A9D2C8CD2901AA7C" x="6.879882813" y="0" fill="#656d76" fill-rule="nonzero"/><use xlink:href="#g792AAD7F596CDF38982C7427B21FBA1F" x="14.248046875" y="0" fill="#656d76" fill-rule="nonzero"/><use xlink:href="#gEF0C0B7EC235A5E6B27ADB4BF9522CC4" x="20.849609375" y="0" fill="#656d76" fill-rule="nonzero"/><use xlink:href="#g3CA662977F0AD06F2DBFC6BEDC8F5204" x="23.618164063" y="0" fill="#656d76" fill-rule="nonzero"/><use xlink:href="#gEF0C0B7EC235A5E6B27ADB4BF9522CC4" x="30.893554688" y="0" fill="#656d76" fill-rule="nonzero"/><use xlink:href="#g792AAD7F596CDF38982C7427B21FBA1F" x="33.662109375" y="0" fill="#656d76" fill-rule="nonzero"/><use xlink:href="#g162D3006869D1D8474ECE70D30DFCFAE" x="40.390625" y="0" fill="#656d76" fill-rule="nonzero"/></g><g transform="matrix(1 0 0 -1 24 62.114550781)"><use xlink:href="#g760A4EE5F298902703B568661A981B4C" x="0" y="0" fill="#656d76" fill-rule="nonzero"/><use xlink:href="#gA0F5C3D1461668BCE04D7BFBBFCA3618" x="7.333984375" y="0" fill="#656d76" fill-rule="nonzero"/><use xlink:href="#g3DCEA8B3A3878F0A20854945BFC77BC9" x="13.374023438" y="0" fill="#656d76" fill-rule="nonzero"/><use xlink:href="#g3DCEA8B3A3878F0A20854945BFC77BC9" x="22.255859375" y="0" fill="#656d76" fill-rule="nonzero"/><use xlink:href="#g9834BDDA5365457BDB8530C3C3DAF74" x="31.137695313" y="0" fill="#656d76" fill-rule="nonzero"/><use xlink:href="#gE6952E1EB6E65284E9254212A2539243" x="33.657226563" y="0" fill="#656d76" fill-rule="nonzero"/><use xlink:href="#gAEE52FD45F3083B06DF88BF347456767" x="36.97265625" y="0" fill="#656d76" fill-rule="nonzero"/></g><path fill="#f6f8fa" fill-rule="nonzero" transform="translate(106 54.476855469)" d="M 0 0m 0 4c 0 -2.209138999 1.790861001 -4 4 -4h 285c 2.209138999 0 4 1.790861001 4 4c 0 2.209138999 -1.790861001 4 -4 4h -285c -2.209138999 0 -4 -1.790861001 -4 -4Z "/><g transform="translate(106 54.476855469)" clip-path="url(#c72C641B0BC297642AFA7FE45403A78E0)"><g><path fill="#1a7f37" fill-rule="nonzero" d="M 0 0m 0 4c 0 -2.209138999 1.790861001 -4 4 -4h 212c 2.209138999 0 4 1.790861001 4 4c 0 2.209138999 -1.790861001 4 -4 4h -212c -2.209138999 0 -4 -1.790861001 -4 -4Z "/></g></g><g transform="matrix(1 0 0 -1 441.625488281 62.478320312)"><use xlink:href="#gBDEC51F7B2CCAD95CB99438160D75B1F" x="0" y="0" fill="#1f2328" fill-rule="nonzero"/><use xlink:href="#g2E500496DD70358E0E5999E6E4C8E035" x="6.853515625" y="0" fill="#1f2328" fill-rule="nonzero"/><use xlink:href="#g9ECA9D052343CEC5C18223310AF4E223" x="10.360839844" y="0" fill="#1f2328" fill-rule="nonzero"/><use xlink:href="#gAA9627436000C74DC1CD81814873C6CA" x="17.687011719" y="0" fill="#1f2328" fill-rule="nonzero"/><use xlink:href="#g9C9731DC51A2ED75C0BD297C6DA18A97" x="24.723144531" y="0" fill="#1f2328" fill-rule="nonzero"/></g><g transform="matrix(1 0 0 -1 24 93.317480469)"><use xlink:href="#gD8407259F348E70F969AC3B2F8C109D3" x="0" y="0" fill="#656d76" fill-rule="nonzero"/><use xlink:href="#g915324DCCC962B8E251BD42F3797FA62" x="6.416015625" y="0" fill="#656d76" fill-rule="nonzero"/><use xlink:href="#g692DF712C9E8D5620F3A77362AA8E7E4" x="12.431640625" y="0" fill="#656d76" fill-rule="nonzero"/><use xlink:href="#g692DF712C9E8D5620F3A77362AA8E7E4" x="14.951171875" y="0" fill="#656d76" fill-rule="nonzero"/><use xlink:href="#g8DDFCBE9DCFE70B360D3ED7B85F26C2" x="20.13671875" y="0" fill="#656d76" fill-rule="nonzero"/><use xlink:href="#g4038EF2B65D688207DB7C76AD73A9CE1" x="26.479492188" y="0" fill="#656d76" fill-rule="nonzero"/><use xlink:href="#g696711188D5162B7B878269F115BA3F2" x="32.353515625" y="0" fill="#656d76" fill-rule="nonzero"/><use xlink:href="#g915324DCCC962B8E251BD42F3797FA62" x="38.53515625" y="0" fill="#656d76" fill-rule="nonzero"/><use xlink:href="#g4038EF2B65D688207DB7C76AD73A9CE1" x="44.55078125" y="0" fill="#656d76" fill-rule="nonzero"/><use xlink:href="#gAEE52FD45F3083B06DF88BF347456767" x="50.424804688" y="0" fill="#656d76" fill-rule="nonzero"/><use xlink:href="#gE6952E1EB6E65284E9254212A2539243" x="55.810546875" y="0" fill="#656d76" fill-rule="nonzero"/><use xlink:href="#gAEE52FD45F3083B06DF88BF347456767" x="59.125976563" y="0" fill="#656d76" fill-rule="nonzero"/></g><path fill="#f6f8fa" fill-rule="nonzero" transform="translate(106 85.679785156)" d="M 0 0m 0 4c 0 -2.209138999 1.790861001 -4 4 -4h 285c 2.209138999 0 4 1.790861001 4 4c 0 2.209138999 -1.790861001 4 -4 4h -285c -2.209138999 0 -4 -1.790861001 -4 -4Z "/><g transform="translate(106 85.679785156)" clip-path="url(#c72C641B0BC297642AFA7FE45403A78E0)"><g><path fill="#0969da" fill-rule="nonzero" d="M 0 0m 0 4c 0 -2.209138999 1.790861001 -4 4 -4h 4.541148133c 2.209138999 0 4 1.790861001 4 4c 0 2.209138999 -1.790861001 4 -4 4h -4.541148133c -2.209138999 0 -4 -1.790861001 -4 -4Z "/></g></g><g transform="matrix(1 0 0 -1 452.168945313 93.68125)"><use xlink:href="#g9C9731DC51A2ED75C0BD297C6DA18A97" x="0" y="0" fill="#1f2328" fill-rule="nonzero"/><use xlink:href="#g9ECA9D052343CEC5C18223310AF4E223" x="4.651367188" y="0" fill="#1f2328" fill-rule="nonzero"/><use xlink:href="#gBDEC51F7B2CCAD95CB99438160D75B1F" x="11.977539063" y="0" fill="#1f2328" fill-rule="nonzero"/></g><g transform="matrix(1 0 0 -1 24 124.520410156)"><use xlink:href="#gA4814017F64A5B56855B960B93C9281D" x="0" y="0" fill="#656d76" fill-rule="nonzero"/><use xlink:href="#gAEE52FD45F3083B06DF88BF347456767" x="2.724609375" y="0" fill="#656d76" fill-rule="nonzero"/><use xlink:href="#gAEE52FD45F3083B06DF88BF347456767" x="8.110351563" y="0" fill="#656d76" fill-rule="nonzero"/><use xlink:href="#g915324DCCC962B8E251BD42F3797FA62" x="13.49609375" y="0" fill="#656d76" fill-rule="nonzero"/><use xlink:href="#g4038EF2B65D688207DB7C76AD73A9CE1" x="19.51171875" y="0" fill="#656d76" fill-rule="nonzero"/><use xlink:href="#gAEE52FD45F3083B06DF88BF347456767" x="25.385742188" y="0" fill="#656d76" fill-rule="nonzero"/></g><path fill="#f6f8fa" fill-rule="nonzero" transform="translate(106 116.882714844)" d="M 0 0m 0 4c 0 -2.209138999 1.790861001 -4 4 -4h 285c 2.209138999 0 4 1.790861001 4 4c 0 2.209138999 -1.790861001 4 -4 4h -285c -2.209138999 0 -4 -1.790861001 -4 -4Z "/><g transform="translate(106 116.882714844)" clip-path="url(#c72C641B0BC297642AFA7FE45403A78E0)"><g><path fill="#8250df" fill-rule="nonzero" d="M 0 0m 0 1.14813328c 0 -0.634096501 0.514036779 -1.14813328 1.14813328 -1.14813328c 0.634096501 0 1.14813328 0.514036779 1.14813328 1.14813328v 5.70373344c 0 0.634096501 -0.514036779 1.14813328 -1.14813328 1.14813328c -0.634096501 0 -1.14813328 -0.514036779 -1.14813328 -1.14813328Z "/></g></g><g transform="matrix(1 0 0 -1 457.110351563 124.884179688)"><use xlink:href="#gBDEC51F7B2CCAD95CB99438160D75B1F" x="0" y="0" fill="#1f2328" fill-rule="nonzero"/><use xlink:href="#gF512DFFEDA761371C29FFE66BD5F2750" x="6.853515625" y="0" fill="#1f2328" fill-rule="nonzero"/></g></g></g><defs><symbol id="gBCC03FFC9CE10D6770D03EE7B6E4377B" overflow="visible"><path d="M 0 0m 7.686917186 -0.208332539q -2.045568228 0 -3.592114449 0.91643855q -1.546546519 0.91643855 -2.412397861 2.594237775q -0.865851268 1.677799225 -0.865851268 3.95625025q 0 2.350713611 0.89762114 4.029390812q 0.897620916 1.678677797 2.440683544 2.574903965q 1.543062627 0.896224976 3.47502619 0.896224976q 1.234697104 0 2.307349443 -0.35885334q 1.07265234 -0.358854532 1.909987926 -1.022850275q 0.837334394 -0.663995743 1.368193626 -1.572393179q 0.53085804 -0.908396244 0.678973198 -2.007741928h -3.03914547q -0.140042305 0.535359383 -0.418463945 0.962382555q -0.27842164 0.427023172 -0.683342218 0.729695559q -0.404919982 0.302673578 -0.922210217 0.461757183q -0.517290235 0.159083605 -1.140342951 0.159083605q -1.155083179 0 -2.023547888 -0.570706129q -0.86846441 -0.570707321 -1.34747386 -1.650826931q -0.479009748 -1.08011961 -0.479009748 -2.608973384q 0 -1.526640654 0.476112366 -2.608029246q 0.476112664 -1.081388593 1.347930431 -1.656230092q 0.87181747 -0.574841499 2.062448859 -0.574841499q 1.040893793 0 1.80193603 0.384706259q 0.761042237 0.384706557 1.173449159 1.085205674q 0.412408113 0.700499415 0.412408113 1.644004583l 0.654810667 -0.079623461h -3.818637729v 2.271261215h 6.07211411v -1.8313694q 0 -1.872784197 -0.815135241 -3.247098923q -0.815134048 -1.374314576 -2.243744135 -2.125159875q -1.428610086 -0.750845298 -3.277627826 -0.750845298Z "/></symbol><symbol id="gB7D98D20B91915F451356C0BD66DB867" overflow="visible"><path d="M 0 0m 4.257565439 -0.198504347q -1.037174463 0 -1.852930784 0.35826955q -0.81575647 0.358269531 -1.283693761 1.070348155q -0.467937291 0.712078512 -0.467937291 1.773537844q 0 0.903647244 0.33043772 1.505306959q 0.33043772 0.601659715 0.904137343 0.968976319q 0.573699772 0.367316604 1.309345067 0.558819771q 0.735644996 0.191503167 1.542804837 0.268066525q 0.944663286 0.095053315 1.518134475 0.180110931q 0.573471785 0.085058212 0.835094452 0.260123014q 0.261622071 0.175064802 0.261622071 0.521226525v 0.054036379q 0 0.438877344 -0.199905038 0.750960708q -0.199904442 0.31208396 -0.579271913 0.481748581q -0.379367471 0.169665217 -0.925925374 0.169665217q -0.551050901 0 -0.965445042 -0.16956687q -0.414393842 -0.16956687 -0.671071112 -0.459902287q -0.25667727 -0.290335417 -0.348216891 -0.660519004l -2.693122774 0.297278166q 0.208341107 0.992119312 0.832758248 1.694847941q 0.624417216 0.702728629 1.611163169 1.078668237q 0.986746252 0.375939608 2.268174887 0.375939608q 0.938266516 0 1.767558455 -0.21936655q 0.82929194 -0.21936655 1.459501386 -0.66819191q 0.63020885 -0.448825955 0.986982584 -1.135709882q 0.356773138 -0.686883926 0.356773138 -1.624915004v -7.231254578h -2.789017558v 1.495443285h -0.077084899q -0.26640296 -0.505919382 -0.69368124 -0.887365751q -0.427277684 -0.381446388 -1.030014753 -0.594014134q -0.602736473 -0.212567747 -1.407169402 -0.212567747Z m 0.81430167 2.034420688q 0.692525506 0 1.210077405 0.26875481q 0.517551303 0.26875481 0.805639625 0.726834387q 0.288088322 0.458079278 0.288088322 1.026963592v 1.132958233q -0.13053298 -0.082293451 -0.373311043 -0.155601799q -0.242778063 -0.073308647 -0.548155308 -0.133986473q -0.305377245 -0.060677826 -0.62130034 -0.109603703q -0.315922499 -0.048925877 -0.594762564 -0.08974582q -0.523312688 -0.072851777 -0.929698646 -0.243067741q -0.406385958 -0.170215964 -0.636468232 -0.455212891q -0.230081975 -0.284996927 -0.230081975 -0.715929568q 0 -0.403522253 0.208629668 -0.683344156q 0.208629668 -0.279821903 0.574846268 -0.424420387q 0.3662166 -0.144598484 0.84649682 -0.144598484Z "/></symbol><symbol id="gDBD0E2DE7B65F00F4046CC932B59E340" overflow="visible"><path d="M 0 0m 7.218207121 -0.193229597q -0.81654489 0 -1.422210336 0.266832896q -0.605665445 0.266832914 -1.014224887 0.696261022q -0.408559144 0.429428071 -0.645406544 0.922975689h -0.099808872v -1.69284001h -2.864926383v 14.55078125h 2.909978852v -5.535932183h 0.067776442q 0.244918764 0.4770118 0.644591153 0.902826786q 0.399672389 0.425814986 1.001204252 0.693789124q 0.601531863 0.267972946 1.441124082 0.267972946q 1.249937415 0 2.251338363 -0.643424988q 1.001400948 -0.643424988 1.591374874 -1.878875494q 0.589975119 -1.235450506 0.589975119 -3.008043766q 0 -1.749480665 -0.575293303 -2.9890652q -0.575294495 -1.23958461 -1.579332352 -1.896421313q -1.004037261 -0.656836759 -2.29616046 -0.656836759Z m -0.849263072 2.345996182q 0.745779276 0 1.263884902 0.399191976q 0.518106222 0.399192274 0.791546702 1.121076345q 0.27344048 0.721883774 0.27344048 1.682049036q 0 0.962182879 -0.271943212 1.676318645q -0.271943212 0.714136362 -0.790049434 1.110594273q -0.518105626 0.396457314 -1.266879439 0.396457314q -0.74350059 0 -1.276286244 -0.393461585q -0.532785952 -0.393462181 -0.815275311 -1.106100678q -0.282489657 -0.712638497 -0.282489657 -1.683807969q 0 -0.962641239 0.283986926 -1.682767272q 0.283987224 -0.720125735 0.818270445 -1.119837761q 0.534283519 -0.399712324 1.271793842 -0.399712324Z "/></symbol><symbol id="gAE406758405A3EACEAD6ED162A120820" overflow="visible"><path d="M 0 0m 1.171630099 0v 10.716158152h 2.816751227v -1.853510737h 0.087631941q 0.292708874 0.983784199 0.966150463 1.479195952q 0.673441887 0.495411158 1.625654101 0.495411158q 0.236716866 0 0.480988622 -0.020052195q 0.244271755 -0.020052195 0.43372333 -0.054165125v -2.561429143q -0.181311965 0.049153566 -0.54921329 0.083692074q -0.367901325 0.034538507 -0.70689857 0.034538507q -0.64284265 0 -1.153979301 -0.283139348q -0.511137247 -0.283139348 -0.80098331 -0.801207423q -0.289846361 -0.518068075 -0.289846361 -1.230243444v -6.005248427h -2.909978852Z "/></symbol><symbol id="g59CB9EA3C3234A7AADE3299E0905C3CF" overflow="visible"><path d="M 0 0m 1.171630099 0v 10.716158152h 2.909978852v -10.716158152h -2.909978852Z m 1.452711448 12.096518278q -0.67811653 0 -1.148326546 0.441154242q -0.470210165 0.441155434 -0.470210165 1.073887348q 0 0.641120672 0.470210165 1.077477932q 0.470210016 0.436358452 1.146809608 0.436358452q 0.681121647 0 1.152085066 -0.4357934q 0.470963418 -0.435792208 0.470963418 -1.079345942q 0 -0.632755756 -0.471169949 -1.073247194q -0.471170247 -0.440491438 -1.150361598 -0.440491438Z "/></symbol><symbol id="g88F105EC22933C747E626D8EDAB8C85B" overflow="visible"><path d="M 0 0m 6.03223145 -0.220312644q -1.634829938 0 -2.829196453 0.686686654q -1.194366664 0.686686561 -1.839645058 1.932683438q -0.645278469 1.245996952 -0.645278469 2.91852504q 0 1.649155617 0.646156892 2.902770042q 0.646157116 1.253614426 1.813114285 1.959344745q 1.166957319 0.705729723 2.724767625 0.705729723q 1.092180014 0 2.021636367 -0.35654068q 0.929456353 -0.356539488 1.621643305 -1.052860022q 0.692186356 -0.696320534 1.076432467 -1.715430021q 0.384244919 -1.019109488 0.384244919 -2.347763181v -0.806504786h -9.144504964v 1.841000617h 7.730917037l -1.345226169 -0.474352241q 0 0.828656554 -0.268199444 1.436674595q -0.268199444 0.608017445 -0.782333612 0.941454172q -0.514133573 0.333436728 -1.261213422 0.333436728q -0.743825436 0 -1.27006948 -0.336431861q -0.526243746 -0.336431861 -0.804925859 -0.926479101q -0.278682113 -0.59004724 -0.278682113 -1.36179924v -1.283904016q 0 -0.896693468 0.307100713 -1.525869668q 0.307101011 -0.629175901 0.872896314 -0.954864323q 0.565795302 -0.325688273 1.329606771 -0.325688273q 0.529692173 0 0.955184698 0.151857138q 0.425492525 0.151857138 0.725007653 0.441672057q 0.299515128 0.289815068 0.447889566 0.701084137l 2.642409205 -0.326572061q -0.239650011 -0.944200456 -0.902863145 -1.65471077q -0.663213134 -0.710510276 -1.663208604 -1.106829569q -0.999994874 -0.396319274 -2.263661027 -0.396319274Z "/></symbol><symbol id="gBABC274F262CE4A0F7E06BE65E6ED668" overflow="visible"><path d="M 0 0m 4.081608951 14.55078125v -14.55078125h -2.909978852v 14.55078125h 2.909978852Z "/></symbol><symbol id="g940BBE1695EFF246394C84D536A1962" overflow="visible"><path d="M 0 0m 4.254244268 0l -3.906838298 14.55078125h 3.237054348l 1.695207059 -7.177936435q 0.206639767 -0.901229382 0.381444097 -1.882894635q 0.17480433 -0.981664956 0.342479348 -1.966683865q 0.167675018 -0.985018611 0.32548666 -1.918476224h -0.550310612q 0.178123713 0.933457613 0.353708267 1.918476224q 0.175585151 0.985018909 0.367316008 1.966683865q 0.191730857 0.981665254 0.408917069 1.882894635l 1.786221266 7.177936435h 3.088763356l 1.77723527 -7.177936435q 0.22018075 -0.901229382 0.411163568 -1.882894635q 0.190982819 -0.981664956 0.370311737 -1.966683865q 0.179328918 -0.985018611 0.357451439 -1.918476224h -0.569062233q 0.167577267 0.933457613 0.332615376 1.918476224q 0.165039301 0.985018909 0.34697175 1.966683865q 0.181932449 0.981665254 0.378806591 1.882894635l 1.69598937 7.177936435h 3.24603796l -3.915822506 -14.55078125h -3.386211395l -1.97488904 7.60800004q -0.282292366 1.117838621 -0.503517389 2.436259985q -0.221223831 1.318420172 -0.497847795 2.779352665h 0.763784647q -0.297716856 -1.436972618 -0.497261286 -2.742892504q -0.19954443 -1.305920482 -0.499089956 -2.472720146l -1.97391212 -7.60800004h -3.392202556Z "/></symbol><symbol id="g949F248C2C26B18F8665DF35CE01C980" overflow="visible"><path d="M 0 0m 4.884524345 -0.163279343q -1.117642522 0 -1.955338717 0.487499032q -0.837696344 0.487499014 -1.297625899 1.406477019q -0.45992963 0.918978006 -0.45992963 2.203030735v 6.782430708h 2.909978852v -6.266040206q 0 -1.022146046 0.517812073 -1.588298082q 0.517812371 -0.566152036 1.435139775 -0.566152036q 0.613288283 0 1.082370281 0.261982381q 0.469081998 0.261982381 0.736241341 0.776278377q 0.267159343 0.514296293 0.267159343 1.258118749v 6.124110818h 2.912973166v -10.716158152h -2.789340615l -0.028125048 2.711910307h 0.277338624q -0.453321338 -1.371879876 -1.341017485 -2.123534754q -0.887696147 -0.751654897 -2.267636061 -0.751654897Z "/></symbol><symbol id="g4B868E75FB7AC1BD73CD3731FBF27BDF" overflow="visible"><path d="M 0 0m 6.1171875 -2.314453125q -1.306640625 0 -2.314453125 0.357421875q -1.0078125 0.357421875 -1.696289063 1.045898438q -0.688476563 0.688476563 -1.040039063 1.693359375q -0.3515625 1.004882813 -0.3515625 2.293945313q 0 1.248046875 0.357421875 2.23828125q 0.357421875 0.990234375 1.040039063 1.684570313q 0.682617188 0.694335938 1.661132813 1.060546875q 0.978515625 0.366210938 2.220703125 0.366210938q 1.20703125 0 2.118164063 -0.389648438q 0.911132813 -0.389648438 1.526367188 -1.0546875q 0.615234375 -0.665039063 0.92578125 -1.502929688q 0.310546875 -0.837890625 0.310546875 -1.728515625q 0 -0.626953125 -0.064453125 -1.256835938q -0.064453125 -0.629882813 -0.266601563 -1.154296875q -0.202148438 -0.524414063 -0.603515625 -0.84375q -0.401367188 -0.319335938 -1.081054688 -0.319335938q -0.3046875 0 -0.662109375 0.09375q -0.357421875 0.09375 -0.629882813 0.310546875q -0.272460938 0.216796875 -0.325195313 0.580078125h -0.046875q -0.15234375 -0.375 -0.544921875 -0.659179688q -0.392578125 -0.284179688 -1.0546875 -0.284179688q -0.779296875 0 -1.303710938 0.38671875q -0.524414063 0.38671875 -0.791015625 1.045898438q -0.266601563 0.659179688 -0.266601563 1.485351563q 0 0.78515625 0.313476563 1.40625q 0.313476563 0.62109375 0.861328125 0.981445313q 0.547851563 0.360351563 1.245117188 0.360351563q 0.5625 0 0.940429688 -0.205078125q 0.377929688 -0.205078125 0.536132813 -0.427734375h 0.05859375v 0.4921875h 0.92578125v -3.861328125q 0 -0.3515625 0.196289063 -0.615234375q 0.196289063 -0.263671875 0.571289063 -0.263671875q 0.427734375 0 0.65625 0.29296875q 0.228515625 0.29296875 0.31640625 0.90234375q 0.087890625 0.609375 0.087890625 1.564453125q 0 0.7265625 -0.243164063 1.409179688q -0.243164063 0.682617188 -0.735351563 1.227539063q -0.4921875 0.544921875 -1.2421875 0.864257813q -0.75 0.319335938 -1.763671875 0.319335938q -1.0078125 0 -1.798828125 -0.307617188q -0.791015625 -0.307617188 -1.341796875 -0.893554688q -0.55078125 -0.5859375 -0.837890625 -1.426757813q -0.287109375 -0.840820313 -0.287109375 -1.907226563q 0 -1.078125 0.287109375 -1.918945313q 0.287109375 -0.840820313 0.85546875 -1.41796875q 0.568359375 -0.577148438 1.400390625 -0.875976563q 0.83203125 -0.298828125 1.921875 -0.298828125q 0.46875 0 0.916992188 0.087890625q 0.448242188 0.087890625 0.799804688 0.196289063q 0.3515625 0.108398438 0.521484375 0.166992188l 0.251953125 -0.8203125q -0.26953125 -0.111328125 -0.694335938 -0.22265625q -0.424804688 -0.111328125 -0.908203125 -0.184570313q -0.483398438 -0.073242188 -0.928710938 -0.073242188Z m -0.48046875 3.427734375q 0.568359375 0 0.916992188 0.228515625q 0.348632813 0.228515625 0.509765625 0.688476563q 0.161132813 0.459960938 0.161132813 1.151367188q 0 0.703125 -0.17578125 1.098632813q -0.17578125 0.395507813 -0.524414063 0.556640625q -0.348632813 0.161132813 -0.858398438 0.161132813q -0.48046875 0 -0.8203125 -0.249023438q -0.33984375 -0.249023438 -0.521484375 -0.662109375q -0.181640625 -0.413085938 -0.181640625 -0.905273438q 0 -0.5390625 0.146484375 -1.013671875q 0.146484375 -0.474609375 0.474609375 -0.764648438q 0.328125 -0.290039063 0.873046875 -0.290039063Z "/></symbol><symbol id="g12C92347EDC70869C1BFC167940FD336" overflow="visible"><path d="M 0 0m 1.98046875 8.73046875v -8.73046875h -1.0546875v 8.73046875h 1.0546875Z "/></symbol><symbol id="g481E5CF7F3EAE9749D106F3983144DD7" overflow="visible"><path d="M 0 0m 3.146484375 -0.08203125q -0.662109375 0 -1.163085938 0.272460938q -0.500976563 0.272460938 -0.779296875 0.823242188q -0.278320313 0.55078125 -0.278320313 1.376953125v 4.16015625h 1.0546875v -4.072265625q 0 -0.755859375 0.3984375 -1.18359375q 0.3984375 -0.427734375 1.083984375 -0.427734375q 0.46875 0 0.840820313 0.205078125q 0.372070313 0.205078125 0.588867188 0.600585938q 0.216796875 0.395507813 0.216796875 0.952148438v 3.92578125h 1.060546875v -6.55078125h -1.01953125v 1.587890625h 0.140625q -0.3046875 -0.919921875 -0.864257813 -1.294921875q -0.559570313 -0.375 -1.280273438 -0.375Z "/></symbol><symbol id="g40324ACAB3562217234C7929DEA2AE3" overflow="visible"><path d="M 0 0m 3.591796875 -0.140625q -0.890625 0 -1.561523438 0.421875q -0.670898438 0.421875 -1.045898438 1.18359375q -0.375 0.76171875 -0.375 1.76953125q 0 1.025390625 0.375 1.790039063q 0.375 0.764648438 1.045898438 1.186523438q 0.670898438 0.421875 1.561523438 0.421875q 0.474609375 0 0.896484375 -0.123046875q 0.421875 -0.123046875 0.770507813 -0.354492188q 0.348632813 -0.231445313 0.600585938 -0.568359375q 0.251953125 -0.336914063 0.38671875 -0.764648438l -1.013671875 -0.287109375q -0.0703125 0.251953125 -0.216796875 0.462890625q -0.146484375 0.2109375 -0.354492188 0.366210938q -0.208007813 0.155273438 -0.477539063 0.240234375q -0.26953125 0.084960938 -0.591796875 0.084960938q -0.65625 0 -1.078125 -0.342773438q -0.421875 -0.342773438 -0.626953125 -0.899414063q -0.205078125 -0.556640625 -0.205078125 -1.212890625q 0 -0.64453125 0.205078125 -1.198242188q 0.205078125 -0.553710938 0.626953125 -0.893554688q 0.421875 -0.33984375 1.078125 -0.33984375q 0.328125 0 0.603515625 0.087890625q 0.275390625 0.087890625 0.489257813 0.249023438q 0.213867188 0.161132813 0.360351563 0.383789063q 0.146484375 0.22265625 0.216796875 0.486328125l 1.0078125 -0.287109375q -0.12890625 -0.439453125 -0.383789063 -0.782226563q -0.254882813 -0.342773438 -0.606445313 -0.5859375q -0.3515625 -0.243164063 -0.779296875 -0.369140625q -0.427734375 -0.125976563 -0.908203125 -0.125976563Z "/></symbol><symbol id="g3033191BE1F5096F1DD4CEAF257860A6" overflow="visible"><path d="M 0 0m 0.92578125 0v 6.55078125h 1.0546875v -6.55078125h -1.0546875Z m 0.533203125 7.623046875q -0.298828125 0 -0.515625 0.205078125q -0.216796875 0.205078125 -0.216796875 0.4921875q 0 0.29296875 0.216796875 0.495117188q 0.216796875 0.202148438 0.515625 0.202148438q 0.3046875 0 0.521484375 -0.202148438q 0.216796875 -0.202148438 0.216796875 -0.495117188q 0 -0.287109375 -0.216796875 -0.4921875q -0.216796875 -0.205078125 -0.521484375 -0.205078125Z "/></symbol><symbol id="g5A8F113ADE89425135674F22F6C86B66" overflow="visible"><path d="M 0 0m 3.97265625 6.55078125v -0.90234375h -3.85546875v 0.90234375h 3.85546875Z m -2.56640625 -6.55078125v 7.423828125q 0 0.568359375 0.266601563 0.94921875q 0.266601563 0.380859375 0.694335938 0.57421875q 0.427734375 0.193359375 0.90234375 0.193359375q 0.375 0 0.62109375 -0.061523438q 0.24609375 -0.061523438 0.36328125 -0.114257813l -0.29296875 -0.90234375q -0.08203125 0.029296875 -0.213867188 0.064453125q -0.131835938 0.03515625 -0.354492188 0.03515625q -0.486328125 0 -0.708984375 -0.249023438q -0.22265625 -0.249023438 -0.22265625 -0.723632813v -7.189453125h -1.0546875Z "/></symbol><symbol id="g54B702FFDF96D09AEB5BBD90930108D" overflow="visible"><path d="M 0 0m 3.6796875 -0.140625q -0.94921875 0 -1.637695313 0.421875q -0.688476563 0.421875 -1.060546875 1.177734375q -0.372070313 0.755859375 -0.372070313 1.763671875q 0 1.0078125 0.36328125 1.775390625q 0.36328125 0.767578125 1.028320313 1.201171875q 0.665039063 0.43359375 1.555664063 0.43359375q 0.521484375 0 1.028320313 -0.172851563q 0.506835938 -0.172851563 0.919921875 -0.556640625q 0.413085938 -0.383789063 0.659179688 -1.010742188q 0.24609375 -0.626953125 0.24609375 -1.53515625v -0.439453125h -5.0859375v 0.890625h 4.517578125l -0.4921875 -0.328125q 0 0.64453125 -0.202148438 1.145507813q -0.202148438 0.500976563 -0.600585938 0.78515625q -0.3984375 0.284179688 -0.990234375 0.284179688q -0.591796875 0 -1.013671875 -0.290039063q -0.421875 -0.290039063 -0.64453125 -0.755859375q -0.22265625 -0.465820313 -0.22265625 -0.999023438v -0.591796875q 0 -0.7265625 0.251953125 -1.233398438q 0.251953125 -0.506835938 0.706054688 -0.767578125q 0.454101563 -0.260742188 1.051757813 -0.260742188q 0.38671875 0 0.703125 0.111328125q 0.31640625 0.111328125 0.544921875 0.336914063q 0.228515625 0.225585938 0.3515625 0.559570313l 1.01953125 -0.28125q -0.15234375 -0.4921875 -0.515625 -0.8671875q -0.36328125 -0.375 -0.899414063 -0.5859375q -0.536132813 -0.2109375 -1.209960938 -0.2109375Z "/></symbol><symbol id="gB0280C786B7DF0BD2C5A866BB816DCBC" overflow="visible"><path d="M 0 0m 0.92578125 0v 6.55078125h 1.01953125v -1.0078125h 0.0703125q 0.181640625 0.498046875 0.647460938 0.799804688q 0.465820313 0.301757813 1.051757813 0.301757813q 0.1171875 0 0.278320313 -0.005859375q 0.161132813 -0.005859375 0.254882813 -0.01171875v -1.060546875q -0.046875 0.01171875 -0.234375 0.03515625q -0.1875 0.0234375 -0.3984375 0.0234375q -0.46875 0 -0.840820313 -0.196289063q -0.372070313 -0.196289063 -0.583007813 -0.5390625q -0.2109375 -0.342773438 -0.2109375 -0.788085938v -4.1015625h -1.0546875Z "/></symbol><symbol id="g262E9DB68000F6991385A19C172547A" overflow="visible"><path d="M 0 0m 3.826171875 8.73046875v -8.73046875h -1.095703125v 7.69921875h -0.05859375l -2.109375 -1.564453125v 1.1953125l 1.8984375 1.400390625h 1.365234375Z "/></symbol><symbol id="gBDD08EDEE3020EEF95CCCC0F2D9A1877" overflow="visible"><path d="M 0 0m 3.78515625 -0.1171875q -0.97265625 0 -1.658203125 0.52734375q -0.685546875 0.52734375 -1.048828125 1.526367188q -0.36328125 0.999023438 -0.36328125 2.422851563q 0 1.41796875 0.366210938 2.419921875q 0.366210938 1.001953125 1.051757813 1.53515625q 0.685546875 0.533203125 1.65234375 0.533203125q 0.966796875 0 1.655273438 -0.533203125q 0.688476563 -0.533203125 1.051757813 -1.53515625q 0.36328125 -1.001953125 0.36328125 -2.419921875q 0 -1.41796875 -0.360351563 -2.419921875q -0.360351563 -1.001953125 -1.045898438 -1.529296875q -0.685546875 -0.52734375 -1.6640625 -0.52734375Z m 0 0.97265625q 0.638671875 0 1.083984375 0.416015625q 0.4453125 0.416015625 0.6796875 1.198242188q 0.234375 0.782226563 0.234375 1.889648438q 0 1.11328125 -0.234375 1.901367188q -0.234375 0.788085938 -0.6796875 1.204101563q -0.4453125 0.416015625 -1.083984375 0.416015625q -0.638671875 0 -1.083984375 -0.418945313q -0.4453125 -0.418945313 -0.6796875 -1.204101563q -0.234375 -0.78515625 -0.234375 -1.8984375q 0 -1.107421875 0.234375 -1.889648438q 0.234375 -0.782226563 0.6796875 -1.198242188q 0.4453125 -0.416015625 1.083984375 -0.416015625Z "/></symbol><symbol id="g3AA11AF466730BA8DB43E7F6C87053E5" overflow="visible"><path d="M 0 0m 0.703125 1.775390625v 0.908203125l 3.8203125 6.046875h 0.673828125v -1.39453125h -0.451171875l -2.853515625 -4.51171875v -0.0703125h 5.16796875v -0.978515625h -6.357421875Z m 4.107421875 -1.775390625v 2.044921875l 0.005859375 0.427734375v 6.2578125h 1.060546875v -8.73046875h -1.06640625Z "/></symbol><symbol id="g71E62852FC9A893D7896930359AE4E70" overflow="visible"><path d="M 0 0m 3.343983889 7.275390625v -7.275390625h -1.103736162v 6.264901161h -0.048828125l -1.727941036 -1.262418032v 1.119093895l 1.590816975 1.153813601h 1.289688349Z "/></symbol><symbol id="g1D31C05F51975D0A1D4AF3DDA1E23D2E" overflow="visible"><path d="M 0 0m 3.226231635 -0.09765625q -0.846460164 0 -1.4441064 0.440331697q -0.597646236 0.440331697 -0.914877057 1.272851229q -0.317230821 0.832519531 -0.317230821 2.017722428q 0 1.180325449 0.319202319 2.015573084q 0.319202319 0.835247636 0.916749164 1.279736161q 0.597546697 0.444488525 1.440241039 0.444488525q 0.842694044 0 1.442781687 -0.444775224q 0.600087643 -0.444775224 0.916879177 -1.279736161q 0.316791534 -0.834960938 0.316791534 -2.015829384q 0 -1.180868447 -0.314789414 -2.015283704q -0.314789414 -0.834415257 -0.912435651 -1.274746954q -0.597646236 -0.440331697 -1.449205577 -0.440331697Z m 0.000205636 0.952875614q 0.50401479 0 0.854901373 0.328229666q 0.350886583 0.328229666 0.535216928 0.948456526q 0.184330344 0.62022686 0.184330344 1.501018107q 0 0.885451734 -0.184330344 1.51012212q -0.184330344 0.624670386 -0.535392761 0.953778625q -0.351062119 0.329108238 -0.854559541 0.329108238q -0.503497124 0 -0.854822993 -0.331110358q -0.35132587 -0.331110358 -0.535656214 -0.953778625q -0.184330344 -0.622668266 -0.184330344 -1.50812q 0 -0.880791247 0.183891058 -1.501018107q 0.183891058 -0.62022686 0.535314232 -0.948456526q 0.351423174 -0.328229666 0.855438262 -0.328229666Z "/></symbol><symbol id="g79056AE9319831F8A2196DC336B44F4C" overflow="visible"><path d="M 0 0m 0.651086569 -1.962603331l 0.261509418 0.87593317l 0.121766329 -0.032321215q 0.278218985 -0.070995092 0.500581264 -0.038378239q 0.22236228 0.032616854 0.385843515 0.206742287q 0.163481236 0.174125433 0.261052847 0.525214672l 0.118471384 0.400508642l -2.073539495 5.483888388h 1.159592867l 1.080402136 -3.102883101q 0.18027544 -0.517476797 0.299760699 -1.028262973q 0.119485259 -0.510786176 0.258451104 -1.018193364h -0.328415632q 0.138965845 0.507407188 0.268799663 1.021074057q 0.129833817 0.513666868 0.308740735 1.02538228l 1.101589203 3.102883101h 1.150317192l -2.371103764 -6.217306852q -0.166015625 -0.436327457 -0.40717423 -0.731146336q -0.241158605 -0.294818878 -0.57469368 -0.442714095q -0.333535075 -0.147895217 -0.773748755 -0.147895217q -0.252825022 0 -0.451837778 0.036815405q -0.199012756 0.036815405 -0.296365023 0.080659389Z "/></symbol><symbol id="g51F4DFF5A83CF308979ADE701C7A18DE" overflow="visible"><path d="M 0 0m 0.722284317 0v 5.458984375h 1.039381027v -0.876743793h 0.05859375q 0.150488615 0.444910526 0.527250767 0.699011087q 0.376762152 0.254100561 0.855379105 0.254100561q 0.102927685 0 0.23588717 -0.00751853q 0.132959485 -0.00751853 0.218113065 -0.01855135v -1.025239229q -0.058391094 0.017672777 -0.224744678 0.037643313q -0.166353583 0.019970536 -0.337741971 0.019970536q -0.372174978 0 -0.667737126 -0.157424212q -0.295562148 -0.157424212 -0.46299696 -0.433404446q -0.167434812 -0.275980234 -0.167434812 -0.636531115v -3.314297199h -1.073949337Z "/></symbol><symbol id="gAEE52FD45F3083B06DF88BF347456767" overflow="visible"><path d="M 0 0m 2.68230319 -0.11367321q -0.594030619 0 -1.054763794 0.171920657q -0.460733175 0.171920657 -0.756675601 0.50604701q -0.295942426 0.334126353 -0.392720103 0.815176368l 1.011554003 0.211616755q 0.11367321 -0.426375866 0.419490933 -0.62974751q 0.305817723 -0.203371644 0.780920386 -0.203371644q 0.52033186 0 0.827619433 0.216026306q 0.307287574 0.216026306 0.307287574 0.522190332q 0 0.260360241 -0.189407468 0.431216359q -0.189407468 0.170856118 -0.579745173 0.257479548l -0.918745995 0.20781517q -0.758001804 0.171388388 -1.128994226 0.546190739q -0.370992422 0.374802351 -0.370992422 0.96327424q 0 0.487200022 0.271139741 0.852676034q 0.271139741 0.365476012 0.747011304 0.568991303q 0.475871563 0.203515291 1.092947721 0.203515291q 0.590516329 0 1.010379195 -0.171971321q 0.419862866 -0.171971321 0.68138063 -0.477485061q 0.261517763 -0.30551374 0.376559496 -0.711463094l -0.963705778 -0.212985277q -0.103518963 0.288575888 -0.356402993 0.507187247q -0.25288403 0.21861136 -0.73717773 0.21861136q -0.446109772 0 -0.744020343 -0.200448632q -0.297910571 -0.200448632 -0.297910571 -0.511495471q 0 -0.270227194 0.19908011 -0.439714789q 0.19908011 -0.169487596 0.646845698 -0.271249413l 0.877031088 -0.1953125q 0.758880377 -0.170509815 1.125429273 -0.5378443q 0.366548896 -0.367334485 0.366548896 -0.936765075q 0 -0.497844219 -0.285053253 -0.881043673q -0.285053253 -0.383199453 -0.792418122 -0.601118207q -0.507364869 -0.217918754 -1.172491908 -0.217918754Z "/></symbol><symbol id="g48198AFDDBEA2EEFCAF040924BAC79AA" overflow="visible"><path d="M 0 0m 7.589836836 -0.260416031q -2.054801702 0 -3.530395746 0.744304508q -1.475594223 0.744304508 -2.27326405 2.021550447q -0.797670007 1.277246118 -0.809650093 2.873804927h 3.517968804q 0.014375925 -0.851592064 0.398768306 -1.473104596q 0.384392023 -0.621512532 1.074879885 -0.954052806q 0.690487862 -0.332540452 1.606744766 -0.332540452q 0.899123669 0 1.584417343 0.312763631q 0.68529439 0.312763453 1.071939468 0.877561212q 0.386645079 0.564797759 0.386645079 1.307957053q 0 0.738810182 -0.412073851 1.289962292q -0.412074566 0.551151752 -1.162146807 0.860751629q -0.750072241 0.309599876 -1.77716589 0.309599876h -1.583014727v 2.646324635h 1.583014727q 0.900240183 0 1.573058367 0.286604404q 0.672817469 0.28660512 1.045529366 0.804709911q 0.372711182 0.518104076 0.372711182 1.216522694q 0 0.721362591 -0.336161613 1.257213593q -0.336161613 0.535851002 -0.935724735 0.833523273q -0.599562407 0.297670841 -1.40191412 0.297670841q -0.817455053 0 -1.457200527 -0.309401035q -0.639745474 -0.309402466 -1.00917685 -0.873417377q -0.369431376 -0.564014912 -0.376619339 -1.339646816h -3.414790303q 0.009584069 1.551558495 0.80399707 2.753261089q 0.794412732 1.201702595 2.204758644 1.885774612q 1.410345912 0.684072018 3.261609793 0.684072018q 1.787441254 0 3.158320427 -0.639713287q 1.370879173 -0.639714718 2.141382694 -1.741823673q 0.770503521 -1.102108955 0.770503521 -2.504709721q 0 -1.467159033 -0.917312622 -2.459999084q -0.917312622 -0.992839336 -2.385330677 -1.283026457v -0.076407909q 1.243354797 -0.159089327 2.110150337 -0.734010458q 0.866794109 -0.574921846 1.320008755 -1.445285797q 0.453214645 -0.870363593 0.453214645 -1.927942514q 0 -1.496535659 -0.853161335 -2.666300476q -0.853161335 -1.169764817 -2.353311539 -1.836157501q -1.500149488 -0.666392684 -3.451208353 -0.666392684Z "/></symbol><symbol id="gC85B530165152BBB096C7308DD08E738" overflow="visible"><path d="M 0 0m 7.929049015 -0.260416031q -2.197465539 0 -3.770635128 1.081523001q -1.57316941 1.081523001 -2.416121185 3.089335263q -0.842951775 2.007812262 -0.842951775 4.811452031q 0 2.80146575 0.84392935 4.815444946q 0.84392935 2.013978481 2.416382432 3.098997116q 1.57245326 1.085017204 3.769238234 1.085017204q 2.20030117 0 3.775814295 -1.085324764q 1.57551384 -1.085324764 2.415561676 -3.098997116q 0.840049267 -2.013671637 0.840049267 -4.819047689q 0 -2.798865438 -0.838850498 -4.808867455q -0.838850498 -2.010001838 -2.411759377 -3.089767188q -1.572909594 -1.07976535 -3.780657291 -1.07976535Z m 0.001479864 2.924334705q 1.11021781 0 1.897618532 0.720694721q 0.787400723 0.7206949 1.206348896 2.07537818q 0.418947458 1.35468328 0.418947458 3.259559512q 0 1.914992809 -0.418947458 3.274975777q -0.418948174 1.359982967 -1.207614899 2.085247993q -0.78866601 0.725265026 -1.895155191 0.725265026q -1.106488466 0 -1.89705348 -0.726463795q -0.790564656 -0.726462364 -1.209512472 -2.085247278q -0.418947816 -1.358784914 -0.418947816 -3.273777723q 0 -1.904876232 0.417541623 -3.259559512q 0.417541623 -1.35468328 1.20880723 -2.07537818q 0.791265965 -0.720694721 1.897967577 -0.720694721Z "/></symbol><symbol id="gA210CA6C3559D6BAB7B41D7B05A51059" overflow="visible"><path d="M 0 0m 0.724595547 0v 6.547851563h 2.345585346q 0.758322716 0 1.262196064 -0.262265325q 0.503873348 -0.262265325 0.75523603 -0.726808369q 0.251362681 -0.464543045 0.251362681 -1.068783581q 0 -0.605821967 -0.252548754 -1.060389876q -0.252548754 -0.454567909 -0.757387698 -0.706067383q -0.504838943 -0.251499474 -1.26632452 -0.251499474h -1.763180137v 0.857329488h 1.665907145q 0.482181787 0 0.78018111 0.138564527q 0.297999322 0.138564527 0.438274562 0.398244739q 0.14027524 0.259680212 0.14027524 0.62381798q 0 0.371345401 -0.14027524 0.63902396q -0.14027524 0.267678559 -0.44007647 0.414241433q -0.29980123 0.146562874 -0.785586834 0.146562874h -1.229464531v -5.689822555h -1.004173994Z m 3.722182989 0l -1.585194111 2.959009767h 1.111224174l 1.614724159 -2.959009767h -1.140754223Z "/></symbol><symbol id="g97EB66ECCBDB142D29368FB4BEB208E6" overflow="visible"><path d="M 0 0m 0.724595547 0v 6.547851563h 4.121493101v -0.863214254h -3.117319107v -1.950714827h 2.896452069v -0.856888533h -2.896452069v -2.013819695h 3.14659059v -0.863214254h -4.150764585Z "/></symbol><symbol id="g4C415DD6C933D4549619F54394333539" overflow="visible"><path d="M 0 0m 0.724595547 0v 6.547851563h 2.345585346q 0.758322716 0 1.262196064 -0.280634165q 0.503873348 -0.280634165 0.75523603 -0.760337591q 0.251362681 -0.479703426 0.251362681 -1.084734678q 0 -0.605821967 -0.252548754 -1.087152421q -0.252548754 -0.481330454 -0.757387698 -0.762185097q -0.504838943 -0.280854642 -1.26632452 -0.280854642h -1.604612231v 0.850121856h 1.507339239q 0.482181787 0 0.781983018 0.166117787q 0.29980123 0.166117787 0.438274562 0.456559718q 0.138473332 0.29044193 0.138473332 0.6573928q 0 0.3685323 -0.138473332 0.654975057q -0.138473332 0.286442757 -0.44007647 0.449572563q -0.301603138 0.163129807 -0.787388742 0.163129807h -1.229464531v -5.689822555h -1.004173994Z "/></symbol><symbol id="gBF1FAABFE8460F6C5F4B00F10355BBB2" overflow="visible"><path d="M 0 0m 3.453219652 -0.087890625q -0.848844051 0 -1.517687201 0.402935922q -0.66884315 0.402935922 -1.05467999 1.155807316q -0.38583684 0.752871394 -0.38583684 1.798678637q 0 1.050992489 0.38583684 1.804259241q 0.38583684 0.753266752 1.05467999 1.157609224q 0.66884315 0.404342473 1.517687201 0.404342473q 0.848844051 0 1.515489936 -0.404342473q 0.666645885 -0.404342473 1.051076174 -1.157609224q 0.384430289 -0.753266752 0.384430289 -1.804259241q 0 -1.046597958 -0.384430289 -1.799469352q -0.384430289 -0.752871394 -1.051076174 -1.155411959q -0.666645885 -0.402540565 -1.515489936 -0.402540565Z m 0 0.912603378q 0.559169769 0 1.000743985 0.280816555q 0.441574216 0.280816555 0.698091567 0.827464163q 0.256517351 0.546647608 0.256517351 1.336537778q 0 0.797888517 -0.256517351 1.344931483q -0.256517351 0.547042966 -0.698091567 0.827859521q -0.441574216 0.280816555 -1.000743985 0.280816555q -0.56198287 0 -1.005358994 -0.282618463q -0.443376124 -0.282618463 -0.700288832 -0.829661429q -0.256912708 -0.547042966 -0.256912708 -1.341327667q 0 -0.78989017 0.256912708 -1.33473587q 0.256912708 -0.5448457 0.700288832 -0.827464163q 0.443376124 -0.282618463 1.005358994 -0.282618463Z "/></symbol><symbol id="g678D60297735D9242222C9D0F5A52DF0" overflow="visible"><path d="M 0 0m 2.922789216 -0.107932091q -0.733613133 0 -1.274923682 0.232864559q -0.541310549 0.232864559 -0.84602344 0.664707184q -0.304712892 0.431842625 -0.337937951 1.030183375h 1.00637877q 0.031993389 -0.356489182 0.232697189 -0.590060771q 0.2007038 -0.233571589 0.520280421 -0.348049879q 0.319576621 -0.11447829 0.694784403 -0.11447829q 0.415381908 0 0.740280569 0.131577373q 0.32489866 0.131577373 0.512069106 0.370341718q 0.187170446 0.238764346 0.187170446 0.552722275q 0 0.286359072 -0.162954926 0.468694031q -0.162954926 0.18233496 -0.443155646 0.303450644q -0.28020072 0.121115685 -0.634135365 0.213841796l -0.767294168 0.209097505q -0.804457784 0.217004657 -1.254585564 0.639624774q -0.45012778 0.422620118 -0.45012778 1.094360054q 0 0.566362381 0.305944562 0.991134167q 0.305944562 0.424771786 0.831129134 0.659217775q 0.525184572 0.234445989 1.184090674 0.234445989q 0.672880411 0 1.184090674 -0.235236704q 0.511210263 -0.235236704 0.803796351 -0.644361556q 0.292586088 -0.409124851 0.307792068 -0.931800485h -0.977107286q -0.050803185 0.450538158 -0.417100132 0.696989179q -0.366296947 0.24645102 -0.923094571 0.24645102q -0.394990683 0 -0.687895954 -0.124985576q -0.292905271 -0.124985576 -0.452081501 -0.341952145q -0.15917623 -0.216966569 -0.15917623 -0.495327294q 0 -0.308772683 0.19099474 -0.500907898q 0.19099474 -0.192135215 0.465835333 -0.303055286q 0.274840593 -0.110920072 0.524796724 -0.17683804l 0.633435845 -0.168315053q 0.313486934 -0.078219652 0.644741893 -0.213127255q 0.331254959 -0.134907603 0.613782227 -0.347951174q 0.282527268 -0.213043571 0.456643403 -0.527647913q 0.174116135 -0.314604342 0.174116135 -0.756612003q 0 -0.555900693 -0.286169171 -0.990122974q -0.286169171 -0.434222281 -0.828977466 -0.681547701q -0.542808294 -0.24732542 -1.312109828 -0.24732542Z "/></symbol><symbol id="gA917404BE2108CEC6AD7641344721C4C" overflow="visible"><path d="M 0 0m 7.218164921 -0.271665908q -1.728401899 0 -3.057483673 0.665647991q -1.329081953 0.665647924 -2.130719662 1.815865606q -0.801637799 1.150217414 -0.96895659 2.592376828h 3.439792514q 0.203075409 -0.986727118 0.918639421 -1.571368933q 0.715564013 -0.584641635 1.815520763 -0.584641635q 1.207898855 0 2.007579803 0.68378216q 0.799681664 0.683781981 1.201886415 1.926878929q 0.402204752 1.243097305 0.402204752 2.913295269h -0.064272881q -0.413515806 -0.704974651 -1.054389238 -1.198752165q -0.640873432 -0.493777514 -1.450836182 -0.749756098q -0.809962749 -0.255977869 -1.739155769 -0.255977869q -1.622025847 0 -2.899302006 0.742382526q -1.277276158 0.742382526 -2.008304 2.041900635q -0.731027663 1.299518108 -0.731027663 2.956652641q 0 1.774501562 0.823798656 3.136232615q 0.823798656 1.361729622 2.283767045 2.129333496q 1.459968567 0.767605305 3.367671132 0.760416985q 1.498085976 -0.002396107 2.753769636 -0.520062447q 1.255682945 -0.51766634 2.182190895 -1.570695877q 0.926506519 -1.053030968 1.437808514 -2.665203094q 0.511301994 -1.612173557 0.511301994 -3.808557987q 0 -2.182789564 -0.472731113 -3.925135374q -0.472732544 -1.742346168 -1.379264832 -2.976331472q -0.906533718 -1.233985215 -2.214941025 -1.886133984q -1.308406591 -0.652148746 -2.974546909 -0.652148746Z m 0.142190695 8.911380149q 0.651334047 0 1.208188534 0.240549803q 0.556854486 0.240549803 0.971064806 0.666817904q 0.41421032 0.426267385 0.648561716 0.992145538q 0.234351397 0.565877438 0.234351397 1.224737406q 0 0.873574018 -0.397400379 1.580169439q -0.397399664 0.706596851 -1.081585407 1.123540878q -0.684186459 0.416944027 -1.550835371 0.416944027q -0.862039089 0 -1.552293062 -0.412151814q -0.690253615 -0.412151814 -1.092015266 -1.122641087q -0.401761651 -0.710489273 -0.401761651 -1.601435423q 0 -0.885555267 0.393675327 -1.589155912q 0.393675327 -0.703600645 1.075933814 -1.111560345q 0.682258844 -0.407960415 1.544115543 -0.407960415Z "/></symbol><symbol id="gD1F23D7759F4745DEB463530ADB022F8" overflow="visible"><path d="M 0 0m 1.162827373 0v 2.615560591l 6.305662751 5.618871868q 0.785714149 0.725091934 1.366381645 1.334929705q 0.58066678 0.609838486 0.901057005 1.240818501q 0.320390224 0.630980015 0.320390224 1.397961617q 0 0.809042931 -0.349222898 1.400794029q -0.349222183 0.591749668 -0.969240904 0.913613319q -0.620018721 0.321863651 -1.450572968 0.321863651q -0.877559423 0 -1.522681475 -0.371656895q -0.645122409 -0.371655464 -0.996127367 -1.064274788q -0.351005316 -0.692620754 -0.351005316 -1.662728548h -3.358567625q 0 1.815746069 0.775218755 3.157511473q 0.775218844 1.341765404 2.179561257 2.079927921q 1.404342771 0.738161087 3.286102295 0.738161087q 1.821424484 0 3.209386826 -0.66587162q 1.387961626 -0.66587162 2.17028904 -1.860557556q 0.782326698 -1.194684505 0.782326698 -2.784547806q 0 -1.113666058 -0.423551559 -2.093520641q -0.423551559 -0.979855299 -1.336753607 -2.025444746q -0.913202047 -1.045589447 -2.387868404 -2.361824155l -3.228988409 -2.942802787v -0.069897473h 7.523078442v -2.916886747h -12.444874406Z "/></symbol><symbol id="gFBB6AF8DE46B8DE1F8ADA3D8ACFA5072" overflow="visible"><path d="M 0 0m 0.397454023 5.684637308v 0.863214254h 5.081082344v -0.863214254h -2.034850359v -5.684637308h -1.004173994v 5.684637308h -2.042057991Z "/></symbol><symbol id="gE441A9687A83DF4E6D7FBA3714FBF132" overflow="visible"><path d="M 0 0m 0.223771334 0l 2.331579924 6.547851563h 1.229314327l 2.37103951 -6.547851563h -1.082910776l -1.275599599 3.642806768q -0.148790717 0.444167376 -0.32628268 1.045754671q -0.177491963 0.601587296 -0.410493314 1.444455385h 0.202483177q -0.227816105 -0.850075722 -0.404167593 -1.458870649q -0.176351488 -0.608794928 -0.312749326 -1.031339407l -1.236839533 -3.642806768h -1.085374117Z m 1.263314009 1.725332022v 0.837029457h 3.405305743v -0.837029457h -3.405305743Z "/></symbol><symbol id="g5012C893843C03745039C1578F55236A" overflow="visible"><path d="M 0 0m 1.88097471 0l 7.294187129 14.420901775v 0.06127882h -8.492494494v 2.978756905h 12.169076353v -2.983451843l -7.293143034 -14.477485657h -3.677625954Z "/></symbol><symbol id="g6F5A15E66DED5242565015683579C215" overflow="visible"><path d="M 0 0m 0.724595547 0v 6.547851563h 4.075707793v -0.863214254h -3.071533799v -2.10362649h 2.775868535v -0.856888533h -2.775868535v -2.724122286h -1.004173994Z "/></symbol><symbol id="g3F70F37EE5F49232FF47C53DE4BB54F7" overflow="visible"><path d="M 0 0m 1.435841203 1.741602302v 1.001999259q 0.216213942 0.326594353 0.429044545 0.616937578q 0.212830603 0.290343225 0.445345402 0.57185179q 0.232514799 0.281508565 0.496794999 0.579181194l 1.837749839 2.03627944h 1.276102781l -2.784642577 -3.064281106l -0.066085339 0.01625526l -1.634309649 -1.758223414Z m -0.711245656 -1.741602302v 6.547851563h 1.004173994v -2.090975046l -0.01713717 -1.496041775l 0.01713717 -0.490925789v -2.469908953h -1.004173994Z m 4.034788013 0l -2.226323605 3.205330968l 0.627673388 0.767416477l 2.785889268 -3.972747445h -1.187239051Z "/></symbol><symbol id="g9F35F92680C5F10C6D27E95216EE2DD8" overflow="visible"><path d="M 0 0m 7.793996572 -0.260416031q -1.497669697 0 -2.757155299 0.515062049q -1.259485602 0.515062049 -2.187191248 1.569081947q -0.927705646 1.054020166 -1.439007372 2.665777087q -0.511301726 1.611756563 -0.511301726 3.808140278q 0 2.180394173 0.4697375 3.920135736q 0.4697375 1.739742279 1.375970811 2.970914841q 0.906233311 1.231172562 2.213142514 1.881915092q 1.306909204 0.650742531 2.975445628 0.650742531q 1.732933044 0 3.054358721 -0.662836075q 1.321424961 -0.662836075 2.123232365 -1.803182602q 0.801807404 -1.140347958 0.962797165 -2.587038517h -3.434999943q -0.205054522 0.985450745 -0.917532921 1.560314655q -0.712478399 0.57486248 -1.807642937 0.57486248q -1.204382658 0 -2.007019758 -0.680969238q -0.802637458 -0.680969238 -1.202146769 -1.916800976q -0.399509311 -1.235831738 -0.399509311 -2.910143852h 0.064272523q 0.416328549 0.710365534 1.058790922 1.208634853q 0.642462015 0.498270035 1.45978117 0.757842064q 0.81731987 0.259572029 1.737788916 0.259572029q 1.627833366 0 2.899809122 -0.744179249q 1.271976471 -0.744179964 2.003005028 -2.042030811q 0.731027126 -1.297851563 0.731027126 -2.966705561q 0 -1.771688819 -0.82140255 -3.132612169q -0.82140255 -1.36092326 -2.277269125 -2.128709882q -1.455866575 -0.767786711 -3.366980553 -0.767786711Z m -0.02531147 2.836733222q 0.871179342 0 1.558060884 0.416345716q 0.686881542 0.416345716 1.088643551 1.131327152q 0.401762009 0.714981437 0.401762009 1.605328202q 0 0.88555491 -0.393675327 1.592150331q -0.393676043 0.706595421 -1.073668957 1.117550611q -0.679993629 0.410954475 -1.551172972 0.410954475q -0.648521662 0 -1.204178095 -0.240849495q -0.555656433 -0.24084878 -0.971272945 -0.668613911q -0.415616155 -0.427765131 -0.648769498 -0.996637344q -0.233153343 -0.568872929 -0.233153343 -1.225336432q 0 -0.875371814 0.397608161 -1.588855863q 0.397607803 -0.713483691 1.086155891 -1.133423567q 0.688548088 -0.419939876 1.543660641 -0.419939876Z "/></symbol><symbol id="gEDEA6F9DA24566D0D1FDE8D4832A335B" overflow="visible"><path d="M 0 0m 8.370694399 17.4609375v -17.4609375h -3.511559129v 14.220334053h -0.062110305l -4.057638511 -2.708842993v 3.21663022l 4.116399631 2.732816219h 3.514908314Z "/></symbol><symbol id="gCA7C5F303ADCF81420ADCA8F8122A901" overflow="visible"><path d="M 0 0m 0.724595547 0v 6.547851563h 1.004173994v -5.684637308h 2.962643623v -0.863214254h -3.966817617Z "/></symbol><symbol id="g5C77C70BF4F746590E4B3CAF86B2A16A" overflow="visible"><path d="M 0 0m 1.999253154 0l -1.77548182 6.547851563h 1.056543589l 0.944595695 -3.750921249q 0.086658955 -0.349266529 0.162156701 -0.72375226q 0.075497746 -0.374485731 0.146996319 -0.755783737q 0.071498573 -0.381298006 0.136184871 -0.763789594h -0.146144986q 0.07066226 0.382491589 0.143346906 0.763789594q 0.072684646 0.381298006 0.153762996 0.755783737q 0.081078351 0.374485731 0.169318736 0.72375226l 0.972894073 3.750921249h 1.097873211l 0.96568644 -3.750921249q 0.091844201 -0.349266529 0.171120644 -0.72375226q 0.079276443 -0.374485731 0.155564904 -0.755783737q 0.076288462 -0.381298006 0.146950722 -0.763789594h -0.157747149q 0.06908083 0.382491589 0.140184045 0.763789594q 0.071103215 0.381298006 0.150600135 0.755783737q 0.07949692 0.374485731 0.161761343 0.72375226l 0.941782594 3.750921249h 1.063751221l -1.782689452 -6.547851563h -1.157800198l -1.039602757 3.881966472q -0.120142579 0.455693364 -0.22082144 0.990617573q -0.100678861 0.534924209 -0.205265701 1.179506242h 0.227968454q -0.109331131 -0.615751505 -0.199639499 -1.139073551q -0.090308368 -0.523322046 -0.225656927 -1.031050265l -1.036789656 -3.881966472h -1.161404014Z "/></symbol><symbol id="gF6E57F487FF2FD8A750A65697049246F" overflow="visible"><path d="M 0 0m 0.243361592 0l 2.539669871 7.275390625h 1.65768981l 2.593181133 -7.275390625h -1.429982185l -1.291654706 3.778628707q -0.189052522 0.586679578 -0.395494103 1.325419545q -0.206441283 0.738739967 -0.455664098 1.684048772h 0.274198055q -0.24258256 -0.951559544 -0.441604555 -1.69655025q -0.199022293 -0.744990706 -0.375183821 -1.312918067l -1.249466538 -3.778628707h -1.425688863Z m 1.479265094 1.802782416v 1.049559116h 3.832011223v -1.049559116h -3.832011223Z "/></symbol><symbol id="gD0A07B6DDF9AC5A5A9D2C8CD2901AA7C" overflow="visible"><path d="M 0 0m 3.832029402 -0.09765625q -0.955463946 0 -1.708291173 0.443751663q -0.752827227 0.443751663 -1.186124682 1.279396564q -0.433297455 0.835644901 -0.433297455 2.007320523q 0 1.178315878 0.43593362 2.014839649q 0.43593362 0.836523771 1.189639568 1.280959249q 0.753705949 0.444435477 1.702140123 0.444435477q 0.597451329 0 1.118050516 -0.169041157q 0.520598888 -0.169041157 0.927041173 -0.494037867q 0.406442285 -0.324997306 0.670308471 -0.792374611q 0.263866782 -0.467377901 0.350978374 -1.0640499h -1.314371824q -0.06055057 0.325010717 -0.215147734 0.574822128q -0.154596567 0.249812007 -0.384292603 0.424035192q -0.229696333 0.174223185 -0.517302155 0.263091922q -0.28760612 0.088869333 -0.614174902 0.088869333q -0.596301258 0 -1.057740748 -0.299518704q -0.461439788 -0.299518704 -0.721606016 -0.873067975q -0.260166228 -0.573549569 -0.260166228 -1.398962736q 0 -0.832832456 0.263486356 -1.405503303q 0.263486356 -0.572670847 0.723168701 -0.864475667q 0.459682047 -0.29180482 1.04934305 -0.29180482q 0.326568782 0 0.613296032 0.09043172q 0.28672725 0.09043172 0.518181026 0.26309222q 0.231453776 0.1726605 0.387808084 0.424034894q 0.156354308 0.251374394 0.218662024 0.573259741h 1.314371824q -0.071684122 -0.523249209 -0.318855047 -0.97851932q -0.247170925 -0.455270112 -0.645704865 -0.802918971q -0.398533344 -0.347648859 -0.92967689 -0.542857051q -0.531143844 -0.195208192 -1.175656617 -0.195208192Z "/></symbol><symbol id="g792AAD7F596CDF38982C7427B21FBA1F" overflow="visible"><path d="M 0 0m 0.404703021 6.177402139v 1.097988486h 5.793297291v -1.097988486h -2.241609693v -6.177402139h -1.303827167v 6.177402139h -2.247860432Z "/></symbol><symbol id="gEF0C0B7EC235A5E6B27ADB4BF9522CC4" overflow="visible"><path d="M 0 0m 2.035108209 7.275390625v -7.275390625h -1.303827167v 7.275390625h 1.303827167Z "/></symbol><symbol id="g3CA662977F0AD06F2DBFC6BEDC8F5204" overflow="visible"><path d="M 0 0m 2.834785581 0l -2.591423988 7.275390625h 1.429982781l 1.288529038 -3.778628707q 0.182801783 -0.567927361 0.391979218 -1.306671947q 0.209177136 -0.738744587 0.455274582 -1.671551913h -0.273808539q 0.24258256 0.948434174 0.444924831 1.679365337q 0.202342272 0.730931163 0.378503799 1.298858523l 1.249466836 3.778628707h 1.425688267l -2.544552386 -7.275390625h -1.65456444Z "/></symbol><symbol id="g162D3006869D1D8474ECE70D30DFCFAE" overflow="visible"><path d="M 0 0m 2.931444943 0v 2.816830873l -2.688083351 4.458559752h 1.522366703l 1.299834251 -2.294152081q 0.207234323 -0.360358953 0.36798209 -0.703428686q 0.160748065 -0.343069732 0.331066847 -0.837221444h -0.34121722q 0.166803896 0.500402451 0.325599611 0.846597552q 0.158795714 0.346195102 0.354896486 0.694052577l 1.272104681 2.294152081h 1.515726447l -2.659964263 -4.458559752v -2.816830873h -1.300312281Z "/></symbol><symbol id="g760A4EE5F298902703B568661A981B4C" overflow="visible"><path d="M 0 0m 3.82763505 -0.09765625q -0.94403863 0 -1.68544054 0.44770658q -0.741401911 0.44770658 -1.166789532 1.284230351q -0.425387621 0.836523771 -0.425387621 1.998531818q 0 1.167769432 0.42670548 2.00473249q 0.42670548 0.836963058 1.168546677 1.286232471q 0.741841197 0.449269414 1.682365537 0.449269414q 0.574600697 0 1.080259085 -0.165086389q 0.505658388 -0.165086389 0.90419054 -0.482612848q 0.398532152 -0.31752646 0.66108048 -0.772160292q 0.262548327 -0.454633832 0.354933143 -1.033728719h -1.121020317q -0.069339275 0.350497961 -0.24063468 0.617008209q -0.171295404 0.266510248 -0.421645045 0.451279879q -0.250349641 0.18476963 -0.557730198 0.278033018q -0.307380557 0.093263388 -0.648890138 0.093263388q -0.625303984 0 -1.119701266 -0.315777659q -0.494397283 -0.315777659 -0.778293014 -0.923603177q -0.283895731 -0.607825518 -0.283895731 -1.486849785q 0 -0.880291462 0.286776423 -1.487677693q 0.286776423 -0.607386231 0.780295134 -0.918086767q 0.49351871 -0.310700536 1.113061309 -0.310700536q 0.341509581 0 0.648450851 0.095265508q 0.306941271 0.095265508 0.558169484 0.278033018q 0.251228213 0.18276751 0.42340219 0.451279879q 0.172173977 0.268512368 0.242391825 0.615006089h 1.121020317q -0.082230568 -0.539947748 -0.336432457 -0.987308025q -0.254201889 -0.447360277 -0.648780465 -0.777431726q -0.394578576 -0.330071449 -0.905508399 -0.509459972q -0.510929823 -0.179388523 -1.111499071 -0.179388523Z "/></symbol><symbol id="gA0F5C3D1461668BCE04D7BFBBFCA3618" overflow="visible"><path d="M 0 0m 3.017764091 -0.11367321q -0.768544674 0 -1.341244578 0.352001786q -0.572699904 0.352001786 -0.889153481 0.986328125q -0.316453576 0.634326339 -0.316453576 1.474170089q 0 0.85185647 0.316453576 1.488184929q 0.316453576 0.636328459 0.889153481 0.988330245q 0.572699904 0.352001786 1.341244578 0.352001786q 0.772548914 0 1.346372366 -0.352001786q 0.573823452 -0.352001786 0.890277028 -0.988330245q 0.316453576 -0.636328459 0.316453576 -1.488184929q 0 -0.83984375 -0.316453576 -1.474170089q -0.316453576 -0.634326339 -0.890277028 -0.986328125q -0.573823452 -0.352001786 -1.346372366 -0.352001786Z m 0 0.908254385q 0.498164892 0 0.823420882 0.261238813q 0.32525599 0.261238813 0.482975841 0.694550276q 0.157719851 0.433311462 0.157719851 0.950213671q 0 0.521785021 -0.157719851 0.957782865q -0.157719851 0.435997844 -0.482975841 0.698360205q -0.32525599 0.262362361 -0.823420882 0.262362361q -0.495039225 0 -0.816730261 -0.262362361q -0.321691036 -0.262362361 -0.479410887 -0.696358085q -0.157719851 -0.433995724 -0.157719851 -0.959784985q 0 -0.516902208 0.157719851 -0.950213671q 0.157719851 -0.433311462 0.479410887 -0.694550276q 0.321691036 -0.261238813 0.816730261 -0.261238813Z "/></symbol><symbol id="g3DCEA8B3A3878F0A20854945BFC77BC9" overflow="visible"><path d="M 0 0m 0.722284317 0v 5.458984375h 1.023178101l 0.026847124 -1.266388893h -0.080659389q 0.115818977 0.464543104 0.359714627 0.763856173q 0.24389565 0.299313068 0.571238399 0.447115302q 0.327342749 0.147802234 0.683298111 0.147802234q 0.593067408 0 0.95952332 -0.368846655q 0.366455913 -0.368846655 0.494963527 -1.026049852h -0.134758949q 0.105563402 0.448813438 0.370502472 0.760282874q 0.26493907 0.311469436 0.636227131 0.473041534q 0.371288061 0.161572099 0.800586939 0.161572099q 0.482418537 0 0.87392211 -0.209470987q 0.391503572 -0.209470987 0.621680021 -0.624070764q 0.230176449 -0.414599776 0.230176449 -1.036186814v -3.681640625h -1.073949337v 3.572005033q 0 0.548648834 -0.304795504 0.793330073q -0.304795504 0.244681239 -0.7196486 0.244681239q -0.336339474 0 -0.581367016 -0.142826438q -0.245027542 -0.142826438 -0.377209783 -0.39337039q -0.13218224 -0.250543952 -0.13218224 -0.577895045v -3.495924473h -1.058135033v 3.644081354q 0 0.436530113 -0.280770063 0.701232553q -0.280770063 0.264702439 -0.71564436 0.264702439q -0.297175646 0 -0.553776622 -0.138822198q -0.256600976 -0.138822198 -0.410806537 -0.40938735q -0.154205561 -0.270565152 -0.154205561 -0.669992566v -3.391814232h -1.073949337Z "/></symbol><symbol id="g9834BDDA5365457BDB8530C3C3DAF74" overflow="visible"><path d="M 0 0m 0.722284317 0v 5.458984375h 1.073949337v -5.458984375h -1.073949337Z m 0.540100336 6.291917562q -0.276259184 0 -0.475373268 0.187637806q -0.199114084 0.187638402 -0.199114084 0.450331569q 0 0.268054605 0.199114084 0.453204513q 0.199114084 0.185149908 0.475373268 0.185149908q 0.280012339 0 0.47925204 -0.185055733q 0.199239552 -0.185055733 0.199239552 -0.453252792q 0 -0.262832642 -0.199239552 -0.450423956q -0.199239701 -0.187591314 -0.47925204 -0.187591314Z "/></symbol><symbol id="gE6952E1EB6E65284E9254212A2539243" overflow="visible"><path d="M 0 0m 3.058736324 5.458984375v -0.873196125h -2.961080074v 0.873196125h 2.961080074Z m -2.163610458 1.298828125h 1.073949337v -5.281175375q 0 -0.331068039 0.137943625 -0.484589338q 0.137943625 -0.153521299 0.457387567 -0.153521299q 0.083886385 0 0.220309496 0.019970536q 0.136423111 0.019970536 0.234180689 0.039501786l 0.19032836 -0.860794783q -0.172740221 -0.056735277 -0.368483663 -0.082467198q -0.195743442 -0.025731921 -0.383334756 -0.025731921q -0.745786428 0 -1.154033542 0.381881595q -0.408247113 0.381881595 -0.408247113 1.077184081v 5.369741917Z "/></symbol><symbol id="gBDEC51F7B2CCAD95CB99438160D75B1F" overflow="visible"><path d="M 0 0m 0.718889952 0v 1.031617492l 2.776615828 2.735421926q 0.391671538 0.398338199 0.658083886 0.71040976q 0.266412348 0.31207189 0.404237092 0.606630027q 0.137825072 0.294558465 0.137825072 0.634232938q 0 0.378348708 -0.174565792 0.652603626q -0.174565464 0.274254262 -0.473313868 0.421640038q -0.298748732 0.147386432 -0.682039738 0.147386432q -0.400480539 0 -0.697510153 -0.162104487q -0.297029614 -0.162104487 -0.459348336 -0.460100532q -0.162318721 -0.297996044 -0.162318721 -0.708571315h -1.368042886q 0 0.757314384 0.346001998 1.319555521q 0.346001998 0.562240481 0.956363335 0.871935308q 0.610361338 0.309694827 1.402044296 0.309694827q 0.803282082 0 1.408915192 -0.300995648q 0.605632782 -0.300995648 0.944973528 -0.824243248q 0.339340091 -0.523248255 0.339340091 -1.194196343q 0 -0.44472453 -0.168327272 -0.8710787q -0.168327272 -0.42635417 -0.597148001 -0.958949387q -0.428820401 -0.532595217 -1.213199079 -1.286481529l -1.391403735 -1.417203277v -0.060586751h 3.486957073v -1.196616679h -5.47413981Z "/></symbol><symbol id="g2E500496DD70358E0E5999E6E4C8E035" overflow="visible"><path d="M 0 0m 0.656569004 -2.057746202l 0.47265625 3.236795694h 1.442819893l -0.938416362 -3.236795694h -0.977059782Z "/></symbol><symbol id="g9ECA9D052343CEC5C18223310AF4E223" overflow="visible"><path d="M 0 0m 0.574936509 1.490185112v 1.139896303l 3.401427388 5.372848272h 0.944384426v -1.630160391h -0.577895135l -2.300613135 -3.636979878v -0.064453125h 4.745037764v -1.181151181h -6.212341309Z m 3.809600025 -1.490185112v 1.833914787l 0.022769779 0.517747015v 5.651267886h 1.353005528v -8.002929688h -1.375775307Z "/></symbol><symbol id="gAA9627436000C74DC1CD81814873C6CA" overflow="visible"><path d="M 0 0m 3.356693953 -0.115154624q -0.753656834 0 -1.336624578 0.296585903q -0.582967743 0.296585903 -0.942611709 0.812848523q -0.359643966 0.516262621 -0.446657717 1.170888275h 1.415734947q 0.106136471 -0.464076728 0.443449289 -0.750907362q 0.337312818 -0.286830634 0.866709769 -0.286830634q 0.556242257 0 0.943509132 0.328932285q 0.387267202 0.328932285 0.590516746 0.941466451q 0.203249872 0.612534165 0.203249872 1.463339806h -0.056720376q -0.191645503 -0.341169029 -0.495326698 -0.588882208q -0.303680867 -0.247712851 -0.686099529 -0.382204592q -0.38241899 -0.134491414 -0.814896613 -0.134491414q -0.701032311 0 -1.266073406 0.336231321q -0.565041095 0.336231649 -0.892573237 0.926409423q -0.327532142 0.590177447 -0.327532142 1.344711542q 0 0.789112151 0.36351034 1.415701509q 0.36351034 0.626589358 1.013726413 0.988171101q 0.650216073 0.361582398 1.514523536 0.351269007q 0.569534928 -0.003438234 1.111038804 -0.202272952q 0.541503549 -0.198834717 0.975804865 -0.643450081q 0.434300661 -0.444614708 0.692003667 -1.189582527q 0.257703006 -0.74496749 0.257703006 -1.845613241q 0 -1.030612379 -0.217847943 -1.836924225q -0.217847943 -0.806311846 -0.627227306 -1.368129268q -0.409378707 -0.561817423 -0.987622976 -0.854542032q -0.578244597 -0.292724609 -1.293666154 -0.292724609Z m 0.066605628 3.971130818q 0.320771068 0 0.59610191 0.123754472q 0.275331169 0.123754472 0.479761541 0.33871296q 0.204430699 0.214958489 0.3203426 0.493941635q 0.115912229 0.278983146 0.115912229 0.594811589q 0 0.413584381 -0.193902582 0.762501568q -0.193902582 0.348917186 -0.529606104 0.56194216q -0.335703522 0.213024974 -0.767982155 0.213024974q -0.423469633 0 -0.761106342 -0.206149161q -0.337636709 -0.206149161 -0.534224838 -0.558503926q -0.196588129 -0.352355421 -0.196588129 -0.786567241q 0 -0.430773914 0.191431269 -0.779690772q 0.191431269 -0.348917186 0.522944525 -0.553347886q 0.331513256 -0.204430372 0.756916076 -0.204430372Z "/></symbol><symbol id="g9C9731DC51A2ED75C0BD297C6DA18A97" overflow="visible"><path d="M 0 0m 3.849498361 8.002929688v -8.002929688h -1.423896164v 6.725108981h -0.053710938l -1.867865384 -1.343222231v 1.366349667l 1.759566247 1.25469327h 1.585906237Z "/></symbol><symbol id="gD8407259F348E70F969AC3B2F8C109D3" overflow="visible"><path d="M 0 0m 0.805106163 0v 7.275390625h 2.60620594q 0.842580795 0 1.402440071 -0.311815739q 0.559859276 -0.311815739 0.839151144 -0.844819546q 0.279291868 -0.533003807 0.279291868 -1.205260754q 0 -0.673135519 -0.280609727 -1.207947135q -0.280609727 -0.534811616 -0.841541886 -0.84687233q -0.560932159 -0.312060714 -1.407027245 -0.312060714h -1.782902479v 0.94457984h 1.674821377q 0.535757542 0 0.86887002 0.184575319q 0.333112478 0.184575319 0.486971736 0.507288575q 0.153859258 0.322713256 0.153859258 0.730436444q 0 0.409480333 -0.153859258 0.727750063q -0.153859258 0.31826973 -0.488973856 0.49952507q -0.335114598 0.181255341 -0.87487638 0.181255341h -1.366071701v -6.322025061h -1.115748882Z "/></symbol><symbol id="g915324DCCC962B8E251BD42F3797FA62" overflow="visible"><path d="M 0 0m 2.582534552 -0.068359375q -0.556150675 0 -0.975827575 0.233640075q -0.4196769 0.233640075 -0.65204978 0.693503022q -0.23237288 0.459862947 -0.23237288 1.131646633v 3.46855402h 1.073949337v -3.334690332q 0 -0.589468479 0.309188366 -0.923510194q 0.309188366 -0.334041715 0.844455957 -0.334041715q 0.364267826 0 0.650165677 0.159037709q 0.285897851 0.159037709 0.451626182 0.46446681q 0.165728331 0.305429101 0.165728331 0.73415339v 3.234584332h 1.077953577v -5.458984375h -1.027959585l -0.00702858 1.336420774h 0.10664463q -0.241606236 -0.740244389 -0.699129105 -1.072512269q -0.457522869 -0.33226788 -1.085344553 -0.33226788Z "/></symbol><symbol id="g692DF712C9E8D5620F3A77362AA8E7E4" overflow="visible"><path d="M 0 0m 1.796233654 7.275390625v -7.275390625h -1.073949337v 7.275390625h 1.073949337Z "/></symbol><symbol id="g8DDFCBE9DCFE70B360D3ED7B85F26C2" overflow="visible"><path d="M 0 0m 0.805106163 0v 7.275390625h 2.60620594q 0.842580795 0 1.402440071 -0.291405916q 0.559859276 -0.291405916 0.839151144 -0.807564855q 0.279291868 -0.516158938 0.279291868 -1.187537313q 0 -0.673135519 -0.280609727 -1.178210974q -0.280609727 -0.505075455 -0.841541886 -0.784519315q -0.560932159 -0.27944386 -1.407027245 -0.27944386h -1.959089041v 0.95258832h 1.851007938q 0.535757542 0 0.8668679 0.153960586q 0.331110358 0.153960586 0.486971736 0.442494154q 0.155861378 0.288533568 0.155861378 0.693131089q 0 0.412606001 -0.155861378 0.710026622q -0.155861378 0.297420621 -0.488973856 0.460268259q -0.333112478 0.162847638 -0.87287426 0.162847638h -1.366071701v -6.322025061h -1.115748882Z m 4.135758877 0l -1.76132679 3.28778863h 1.234693527l 1.794137955 -3.28778863h -1.267504692Z "/></symbol><symbol id="g4038EF2B65D688207DB7C76AD73A9CE1" overflow="visible"><path d="M 0 0m 3.075191975 -0.11367321q -0.805951357 0 -1.390224695 0.348487496q -0.584273338 0.348487496 -0.899164081 0.978370309q -0.314890742 0.629882813 -0.314890742 1.477633715q 0 0.840722322 0.309323668 1.479052901q 0.309323668 0.638330579 0.875383615 0.997901559q 0.566059947 0.35957098 1.326697469 0.35957098q 0.467956066 0 0.904376507 -0.152828693q 0.436420441 -0.152828693 0.782855153 -0.480560064q 0.346434712 -0.327731371 0.54887712 -0.849313736q 0.202442408 -0.521582365 0.202442408 -1.259968281v -0.381146669h -4.35249567v 0.801930428h 3.798912764l -0.501527786 -0.264651775q 0 0.500209332 -0.155717731 0.883425474q -0.155717731 0.383216143 -0.462270379 0.59894681q -0.306552649 0.215730667 -0.761938095 0.215730667q -0.455385447 0 -0.777955055 -0.219734907q -0.322569609 -0.219734907 -0.492302179 -0.57892561q -0.169732571 -0.359190702 -0.169732571 -0.783319473v -0.544999838q 0 -0.561540127 0.192828774 -0.950517654q 0.192828774 -0.388977528 0.540935993 -0.587812662q 0.348107219 -0.198835135 0.806618333 -0.198835135q 0.300301313 0 0.545962453 0.086184144q 0.245661139 0.086184144 0.42291224 0.259236693q 0.177251101 0.173052549 0.271883011 0.428529978l 1.007752419 -0.23788929q -0.12871027 -0.424213409 -0.439351797 -0.745059848q -0.310641527 -0.320846438 -0.772354603 -0.500141978q -0.461713076 -0.17929554 -1.047836542 -0.17929554Z "/></symbol><symbol id="g696711188D5162B7B878269F115BA3F2" overflow="visible"><path d="M 0 0m 5.460505486 -2.041015625h -1.073949337v 2.895406485h -0.061330795q -0.092283487 -0.174210072 -0.272212625 -0.399503708q -0.179929137 -0.225293636 -0.49179554 -0.394291282q -0.311866403 -0.168997645 -0.809727311 -0.168997645q -0.661139488 0 -1.177889705 0.339211822q -0.516750216 0.339211822 -0.809718966 0.971341729q -0.29296875 0.632129908 -0.29296875 1.51444912q 0 0.887100697 0.297606587 1.516789198q 0.297606587 0.629688501 0.813917518 0.961821079q 0.51631093 0.332132578 1.169543266 0.332132578q 0.509383678 0 0.82056582 -0.169191957q 0.311182141 -0.169191957 0.486667752 -0.393556356q 0.175485611 -0.2243644 0.266011953 -0.394570231h 0.088870525v 0.888959169h 1.046409607v -7.5Z m -2.470872402 2.847896814q 0.456753969 0 0.77219367 0.242780447q 0.315439701 0.242780447 0.47848165 0.675019026q 0.163041949 0.432238579 0.163041949 0.999928713q 0 0.569447279 -0.161039829 0.992114544q -0.161039829 0.422667265 -0.47647953 0.659002066q -0.315439701 0.236334801 -0.77619791 0.236334801q -0.472770929 0 -0.789334178 -0.248347521q -0.316563249 -0.248347521 -0.474722385 -0.675019026q -0.158159137 -0.426671505 -0.158159137 -0.964084864q 0 -0.540539026 0.160161257 -0.975219011q 0.160161257 -0.434679985 0.478726625 -0.68859458q 0.318565369 -0.253914595 0.783327818 -0.253914595Z "/></symbol><symbol id="gA4814017F64A5B56855B960B93C9281D" overflow="visible"><path d="M 0 0m 1.920855045 7.275390625v -7.275390625h -1.115748882v 7.275390625h 1.115748882Z "/></symbol><symbol id="gF512DFFEDA761371C29FFE66BD5F2750" overflow="visible"><path d="M 0 0m 3.60504967 -0.107421875q -0.571039647 0 -1.11694786 0.196149498q -0.545908213 0.196149498 -0.981928319 0.643235683q -0.436020106 0.447086185 -0.693722948 1.193558559q -0.257702842 0.746472374 -0.257702842 1.847118124q 0 1.027174473 0.217848107 1.830800772q 0.217848107 0.803626299 0.628945932 1.36351037q 0.411097825 0.559884071 0.989342257 0.851642251q 0.578244433 0.29175818 1.297103897 0.29175818q 0.748714209 0 1.33071503 -0.294652879q 0.58200115 -0.294652879 0.942611873 -0.804577649q 0.360610723 -0.509924769 0.445691288 -1.159608126h -1.408859134q -0.111079097 0.457201242 -0.449358344 0.736727595q -0.338279575 0.279526353 -0.860800713 0.279526353q -0.556242257 0 -0.945228249 -0.326999426q -0.388985991 -0.32699877 -0.590516746 -0.935880959q -0.201530755 -0.608881861 -0.201530755 -1.456249595h 0.056720376q 0.19357869 0.344606936 0.496293128 0.592319787q 0.302714437 0.247713178 0.687818646 0.378767014q 0.385104537 0.131053507 0.812211066 0.131053507q 0.702965498 0 1.263601929 -0.334512532q 0.560636759 -0.334512532 0.888169229 -0.923723549q 0.327531815 -0.589211017 0.327531815 -1.349116206q 0 -0.787178963 -0.360072434 -1.409363821q -0.360072434 -0.622184858 -1.00760296 -0.981833905q -0.647530526 -0.359649047 -1.51033327 -0.359649047Z m -0.007732749 1.165685683q 0.427336007 0 0.764758646 0.207868442q 0.337422311 0.207868442 0.53401044 0.560223371q 0.196588129 0.352354929 0.196588129 0.790004656q 0 0.430773914 -0.191431105 0.779690772q -0.191431433 0.348917186 -0.525415838 0.553347886q -0.333984733 0.204430372 -0.76132074 0.204430372q -0.318837881 0 -0.592449933 -0.122035354q -0.273612052 -0.122035682 -0.479009181 -0.336994171q -0.205397129 -0.214958489 -0.319590241 -0.493941635q -0.114193112 -0.278983146 -0.114193112 -0.591373682q 0 -0.420460194 0.193150222 -0.772815123q 0.193150222 -0.352354929 0.531539291 -0.565380231q 0.338389069 -0.213025302 0.763363421 -0.213025302Z "/></symbol></defs><defs><clipPath id="c2C50E63DF6974E21519A0179AC99794"><path d="M 0 0m 0.5 11.5c 0 -6.075132248 4.924867752 -11 11 -11h 472c 6.075132248 0 11 4.924867752 11 11v 381.319140625c 0 6.075132248 -4.924867752 11 -11 11h -472c -6.075132248 0 -11 -4.924867752 -11 -11Z "/></clipPath><clipPath id="c72C641B0BC297642AFA7FE45403A78E0"><path d="M 0 0m 0 4c 0 -2.209138999 1.790861001 -4 4 -4h 285c 2.209138999 0 4 1.790861001 4 4c 0 2.209138999 -1.790861001 4 -4 4h -285c -2.209138999 0 -4 -1.790861001 -4 -4Z "/></clipPath></defs></svg>